<?xml version="1.0" encoding="UTF-8"?>
<svg version="1.1" xmlns="http://www.w3.org/2000/svg" width="200" height="200">
<path d="M0 0 C66 0 132 0 200 0 C200 66 200 132 200 200 C134 200 68 200 0 200 C0 134 0 68 0 0 Z " fill="#090909" transform="translate(0,0)"/>
<path d="M0 0 C66 0 132 0 200 0 C200 66 200 132 200 200 C134 200 68 200 0 200 C0 134 0 68 0 0 Z M24 17 C23.38511719 17.43957031 22.77023438 17.87914062 22.13671875 18.33203125 C16.65927742 22.5463819 13.28540839 27.99030495 10 34 C9.56171875 34.79792969 9.1234375 35.59585938 8.671875 36.41796875 C3.82348792 47.15612181 4.12158908 62.13397787 8 73.125 C13.62998901 85.31542438 22.42700168 95.70610597 35 101 C34.31035156 101.40089844 33.62070312 101.80179687 32.91015625 102.21484375 C20.29728906 109.84484983 11.16351874 119.31222506 6.60644531 133.52441406 C5.55911982 137.79972829 5.51209287 141.99157975 5.5625 146.375 C5.57007324 147.29966064 5.57764648 148.22432129 5.58544922 149.17700195 C5.75247283 156.0987285 6.68828087 161.83794676 10 168 C10.44730469 168.86753906 10.89460937 169.73507813 11.35546875 170.62890625 C18.43266582 183.36027149 29.13894635 190.9046887 43 195 C56.1255732 198.13508914 69.41420325 195.39251452 80.8828125 188.4609375 C88.84259735 182.96839223 94.49792395 176.5988205 99 168 C99 167.34 99 166.68 99 166 C99.66 166 100.32 166 101 166 C101.25910156 166.88945312 101.51820312 167.77890625 101.78515625 168.6953125 C105.83462125 179.71089896 116.32768196 187.48691884 126.625 192.375 C139.6630951 197.59948492 152.90895048 197.31288692 165.8515625 191.78125 C179.2922112 184.9662732 188.08502923 174.83355845 193.19140625 160.703125 C196.20489283 146.90222994 194.98335917 132.8430472 187.61328125 120.71875 C186.1828706 118.68090469 184.66702478 116.8483088 183 115 C182.40316406 114.32324219 181.80632812 113.64648438 181.19140625 112.94921875 C176.39722094 107.827061 171.15180794 104.32802724 165 101 C165.94359375 100.47212891 165.94359375 100.47212891 166.90625 99.93359375 C177.34773592 93.91086919 184.21408131 87.69296365 190 77 C190.43699219 76.20335938 190.87398437 75.40671875 191.32421875 74.5859375 C195.97429012 64.30683236 195.9515011 49.3893394 192.375 38.75 C190.1525349 33.79460961 187.24791967 29.33908429 184 25 C183.2575 23.96875 182.515 22.9375 181.75 21.875 C172.60899317 12.31849286 161.04149165 7.0768182 147.87084961 6.65649414 C134.22667322 6.4703388 123.25548698 9.48143424 113 19 C112.36449219 19.56847656 111.72898437 20.13695312 111.07421875 20.72265625 C106.95692251 24.59309104 103.42527159 28.85887129 101 34 C101 34.99 101 35.98 101 37 C100.34 37 99.68 37 99 37 C98.89945312 36.26523437 98.79890625 35.53046875 98.6953125 34.7734375 C96.59029927 26.37703641 87.35845572 18.1291812 80.375 13.3125 C62.27699147 2.88196836 40.42295917 4.38894625 24 17 Z " fill="#FCFCFC" transform="translate(0,0)"/>
<path d="M0 0 C0.78753662 0.00757324 1.57507324 0.01514648 2.38647461 0.02294922 C13.55832576 0.33706797 22.96786797 4.61913455 31.125 12.25 C39.34474407 21.03662297 43.75676699 32.004001 43.44140625 44.05078125 C42.07807846 56.86606245 36.48838089 66.70695614 27.1875 75.4375 C16.02199347 84.02773647 4.18587756 84.88538704 -9.5 84.625 C-10.89516768 84.60991097 -12.29035134 84.59623009 -13.68554688 84.58398438 C-17.06161584 84.54893868 -20.43684276 84.49980508 -23.8125 84.4375 C-23.8125 80.8075 -23.8125 77.1775 -23.8125 73.4375 C-23.02713867 73.4281543 -22.24177734 73.41880859 -21.43261719 73.40917969 C-17.80865296 73.35486815 -14.18589669 73.27134117 -10.5625 73.1875 C-9.32757813 73.17332031 -8.09265625 73.15914063 -6.8203125 73.14453125 C4.66767117 72.84221589 14.87671054 71.02670788 23.2734375 62.67578125 C29.9045837 54.92140009 31.17941006 47.45900759 30.6640625 37.5078125 C29.97422563 29.98200419 26.8549972 24.71995733 21.4375 19.5625 C13.65322271 13.45350317 6.95250142 11.63554464 -3.015625 11.92578125 C-10.5294341 12.93844482 -17.1056792 16.19259525 -22.3125 21.75 C-27.94747912 29.62517688 -29.41062334 36.66347955 -29.421875 46.25390625 C-29.43841125 47.35097397 -29.45494751 48.44804169 -29.47198486 49.57835388 C-29.52023038 53.05229421 -29.54178438 56.52579751 -29.5625 60 C-29.59067917 62.36786025 -29.6206093 64.73570035 -29.65234375 67.10351562 C-29.72598352 72.88147441 -29.77570156 78.6591939 -29.8125 84.4375 C-33.7725 84.4375 -37.7325 84.4375 -41.8125 84.4375 C-41.88725261 78.10614536 -41.94138468 71.7750537 -41.97729492 65.44335938 C-41.99228213 63.29422524 -42.01267887 61.14512117 -42.03881836 58.99609375 C-42.2547272 40.77508138 -41.76582779 25.4080338 -28.828125 11.2890625 C-20.77007699 3.88690212 -10.86142562 -0.14736079 0 0 Z " fill="#F6F6F6" transform="translate(144.8125,13.5625)"/>
<path d="M0 0 C6.93763926 -0.07453662 13.87504186 -0.12878482 20.81298828 -0.16479492 C23.16980046 -0.17981778 25.52658498 -0.20024196 27.88330078 -0.22631836 C31.28424942 -0.26298821 34.68482621 -0.27979196 38.0859375 -0.29296875 C39.12801361 -0.30845261 40.17008972 -0.32393646 41.2437439 -0.33988953 C53.03240052 -0.34256 63.42179166 2.9862964 72.23046875 11.0390625 C80.74902975 20.08503909 85.61675016 31.03958291 85.24609375 43.5546875 C84.02243779 55.71355462 79.21006956 65.75668392 70.34375 74.1796875 C60.07355335 82.1562069 48.78464375 85.08921353 36 84 C22.98920518 81.25760492 13.0397304 74.11483704 5.71875 63.06640625 C0.19600983 53.00414101 -0.42519159 41.97635684 -0.1875 30.75 C-0.17396484 29.51636719 -0.16042969 28.28273437 -0.14648438 27.01171875 C-0.11155298 24.00761876 -0.05776438 21.0037477 0 18 C3.96 18 7.92 18 12 18 C12.01458252 18.86165771 12.02916504 19.72331543 12.04418945 20.61108398 C12.10572869 23.84874375 12.17996783 27.08580928 12.26245117 30.32299805 C12.29543308 31.71644362 12.32354567 33.11001422 12.34643555 34.50366211 C12.54467924 46.25909155 13.27623101 55.25911466 21.72265625 63.98046875 C29.1842124 70.59732043 36.56092068 71.8449962 46.29296875 71.34375 C55.41441862 70.49792535 60.75643356 66.68602391 67 60 C72.85603275 52.02035098 73.06607136 42.53966548 72 33 C69.97041851 25.64988013 65.38622426 20.08799706 59 16 C52.06895382 12.10737336 46.04776281 11.39985138 38.18359375 11.390625 C37.08652603 11.37408875 35.98945831 11.35755249 34.85914612 11.34051514 C31.38520579 11.29226962 27.91170249 11.27071562 24.4375 11.25 C22.06963975 11.22182083 19.70179965 11.1918907 17.33398438 11.16015625 C11.55602559 11.08651648 5.7783061 11.03679844 0 11 C0 7.37 0 3.74 0 0 Z " fill="#F8F8F8" transform="translate(103,105)"/>
<path d="M0 0 C12.24515991 6.45325939 19.78583415 14.73834422 23.96191406 28.09790039 C25.85603574 35.27267965 25.60975155 42.44899974 25.51171875 49.8203125 C25.50269531 51.11517578 25.49367188 52.41003906 25.484375 53.74414062 C25.46097054 56.91544529 25.42510534 60.0866538 25.38671875 63.2578125 C21.42671875 63.2578125 17.46671875 63.2578125 13.38671875 63.2578125 C13.38784668 62.3512793 13.38897461 61.44474609 13.39013672 60.51074219 C13.38010294 57.08791615 13.34317015 53.66742611 13.2890625 50.24511719 C13.27109702 48.77515582 13.26329804 47.30502837 13.26660156 45.83496094 C13.28139744 34.98958307 12.07383234 25.87964945 4.67700195 17.26708984 C-1.39702712 11.31533081 -9.16981356 9.03635448 -17.48828125 8.6328125 C-25.85452987 8.90592181 -32.52318461 11.65532525 -38.80859375 17.19140625 C-46.10257454 25.01946513 -47.36144738 32.82802295 -47.015625 43.0859375 C-46.43804685 51.11085504 -42.98389311 56.25416896 -37.23828125 61.6953125 C-30.76515681 67.02865091 -24.21799501 69.30124777 -15.82299805 69.46313477 C-14.44213264 69.4930526 -14.44213264 69.4930526 -13.03337097 69.52357483 C-12.05298355 69.54028732 -11.07259613 69.55699982 -10.0625 69.57421875 C-8.54158501 69.6053904 -8.54158501 69.6053904 -6.98994446 69.63719177 C-3.7602904 69.70242364 -0.53055704 69.76144952 2.69921875 69.8203125 C4.89258623 69.86352279 7.08594578 69.90713788 9.27929688 69.95117188 C14.64835682 70.05807799 20.01749632 70.15941947 25.38671875 70.2578125 C25.38671875 73.8878125 25.38671875 77.5178125 25.38671875 81.2578125 C19.17945497 81.30760851 12.97230997 81.34371817 6.76489258 81.36767578 C4.65745007 81.3776736 2.55002122 81.39127628 0.44262695 81.40869141 C-2.60338736 81.43321532 -5.64921675 81.44435809 -8.6953125 81.453125 C-9.62285843 81.46344757 -10.55040436 81.47377014 -11.50605774 81.48440552 C-26.35644985 81.48689782 -37.53641264 77.90074825 -48.41796875 67.58203125 C-56.37499524 59.15777722 -59.9516916 48.13788839 -59.76171875 36.64453125 C-59.05591551 25.29595815 -54.06348912 15.83052631 -46.359375 7.59375 C-33.83286713 -3.06180008 -15.27320724 -6.68933732 0 0 Z " fill="#F7F7F7" transform="translate(71.61328125,16.7421875)"/>
<path d="M0 0 C1.45702511 0.01004845 2.91405691 0.01917101 4.37109375 0.02734375 C7.91420329 0.04921289 11.45705812 0.08364023 15 0.125 C15 3.755 15 7.385 15 11.125 C14.1435791 11.1343457 13.2871582 11.14369141 12.40478516 11.15332031 C9.18002581 11.19773968 5.9561633 11.2595323 2.73193359 11.33251953 C1.34533524 11.36047644 -0.041415 11.38181471 -1.42822266 11.39599609 C-12.11967729 11.51178802 -22.29229836 12.47407753 -30.39453125 20.19140625 C-36.81907919 27.92900049 -38.88420415 35.59232082 -38.46484375 45.5546875 C-37.59700422 52.22027852 -35.75688896 57.3817411 -31 62.125 C-31 62.785 -31 63.445 -31 64.125 C-30.44441406 64.40214844 -29.88882813 64.67929688 -29.31640625 64.96484375 C-27.7179789 65.76540517 -26.12175099 66.57036798 -24.52734375 67.37890625 C-23.67269531 67.81074219 -22.81804688 68.24257812 -21.9375 68.6875 C-21.08027344 69.12191406 -20.22304688 69.55632812 -19.33984375 70.00390625 C-11.9683877 73.53580589 -4.84913056 72.56164943 2.71875 70.02734375 C9.43551291 67.37054198 15.83929459 62.04398752 18.79580688 55.31329346 C21.06016822 49.06647736 21.46964078 43.35412582 21.51171875 36.74609375 C21.53864555 35.16708031 21.53864555 35.16708031 21.56611633 33.5561676 C21.61989126 30.22498468 21.65400969 26.89394231 21.6875 23.5625 C21.72070202 21.2909962 21.75519431 19.01951088 21.79101562 16.74804688 C21.87559889 11.20713322 21.94256612 5.66625888 22 0.125 C25.63 0.125 29.26 0.125 33 0.125 C33.09957048 7.02599985 33.17179912 13.92657289 33.21972656 20.828125 C33.23972611 23.17129815 33.26693477 25.51442214 33.30175781 27.85742188 C33.35079125 31.24361371 33.37308621 34.62914041 33.390625 38.015625 C33.41127014 39.04737854 33.43191528 40.07913208 33.45318604 41.14215088 C33.45673661 52.89573053 30.06484725 62.53022439 22 71.125 C21.40316406 71.76308594 20.80632812 72.40117187 20.19140625 73.05859375 C11.71188048 81.25605629 0.78300518 84.40927214 -10.7265625 84.26953125 C-22.35666016 83.75603052 -33.14403508 78.17820901 -41.02734375 69.6796875 C-48.26328137 60.30879007 -52.24363012 48.97834957 -51 37.125 C-48.79201984 25.22260695 -43.24912587 14.19739111 -33.1640625 7.140625 C-22.02574388 0.3510202 -12.64242353 -0.15204185 0 0 Z " fill="#F9F9F9" transform="translate(63,104.875)"/>
<path d="M0 0 C6.606309 2.93325311 11.05579019 8.40667289 14.23828125 14.7421875 C16.42152862 20.90546972 15.86603519 27.4361522 15.73828125 33.8828125 C15.71797852 35.831875 15.71797852 35.831875 15.69726562 37.8203125 C15.66210459 41.00824662 15.61288789 44.19530849 15.55078125 47.3828125 C11.64082871 47.53343296 7.73204445 47.64106354 3.81982422 47.71240234 C1.85063165 47.75669132 -0.11775824 47.83301154 -2.0859375 47.91015625 C-11.0736616 48.04702514 -18.03828049 46.69998154 -25.44921875 41.3828125 C-31.60806101 34.29338385 -32.87506718 28.18129291 -32.7890625 18.90234375 C-32.06942129 11.44950781 -27.76267884 7.21241692 -22.1953125 2.609375 C-15.70469641 -1.9500287 -7.59288408 -1.91335835 0 0 Z " fill="#FAFAFA" transform="translate(63.44921875,32.6171875)"/>
<path d="M0 0 C5.37433666 4.24289737 10.31902294 9.54300486 11.15234375 16.5078125 C11.30289553 24.495913 10.88290552 30.98194305 5.78125 37.40625 C-0.63288244 43.06577862 -7.36552913 45.68013276 -15.9296875 45.6015625 C-17.17363281 45.59511719 -18.41757813 45.58867188 -19.69921875 45.58203125 C-20.98441406 45.56527344 -22.26960937 45.54851562 -23.59375 45.53125 C-24.90214844 45.52222656 -26.21054688 45.51320312 -27.55859375 45.50390625 C-30.7788337 45.48040085 -33.99869707 45.44754087 -37.21875 45.40625 C-37.33609237 40.94814248 -37.40638372 36.49043872 -37.46875 32.03125 C-37.50226563 30.77957031 -37.53578125 29.52789062 -37.5703125 28.23828125 C-37.67149098 18.57573628 -36.55839454 10.79723232 -29.90625 3.46875 C-21.83383699 -3.73694078 -9.63436475 -5.71530112 0 0 Z " fill="#FAFAFA" transform="translate(158.21875,34.59375)"/>
<path d="M0 0 C0.98820992 0.00424484 0.98820992 0.00424484 1.99638367 0.00857544 C4.08501937 0.01970326 6.17321431 0.04479302 8.26171875 0.0703125 C9.68423857 0.08035191 11.10676515 0.08947608 12.52929688 0.09765625 C16.00274556 0.11961803 19.47593908 0.15409604 22.94921875 0.1953125 C23.07423869 4.28442621 23.1642124 8.37277715 23.22387695 12.46337891 C23.2487868 13.85029514 23.28272877 15.23708337 23.32641602 16.62353516 C23.59491171 25.37333591 23.35022909 32.90709388 17.94921875 40.1953125 C12.64953391 45.28434984 7.52096595 47.90254634 0.13671875 48.5078125 C-7.07561005 48.27382473 -13.31487556 45.90768027 -18.54296875 40.8984375 C-24.22624202 34.47898894 -24.74873762 28.24213121 -24.49609375 19.76171875 C-23.56373916 12.2947035 -19.46596576 8.12605791 -13.89453125 3.421875 C-9.34053504 0.39230972 -5.41334613 -0.04607103 0 0 Z " fill="#FDFDFD" transform="translate(55.05078125,122.8046875)"/>
<path d="M0 0 C3.98347226 -0.07480519 7.96666594 -0.12890718 11.95068359 -0.16479492 C13.96336248 -0.18709408 15.97584584 -0.22523653 17.98828125 -0.26367188 C26.05784887 -0.32449776 32.4942082 -0.29361419 39.20703125 4.61328125 C39.73683594 5.17402344 40.26664063 5.73476562 40.8125 6.3125 C41.35519531 6.86550781 41.89789063 7.41851562 42.45703125 7.98828125 C47.92982946 15.1237017 48.09759557 22.30920233 47 31 C44.60036814 37.58622363 40.40829378 42.98587409 34 46 C27.14635277 48.4899489 20.4977755 48.66335645 13.64453125 46.12890625 C7.49259923 43.1508353 4.14472886 38.99744719 1 33 C-0.15927528 29.52217417 -0.11313066 26.81196743 -0.09765625 23.14453125 C-0.0962413 22.48289474 -0.09482635 21.82125824 -0.09336853 21.13957214 C-0.08777996 19.03050172 -0.07522965 16.92153823 -0.0625 14.8125 C-0.05748352 13.38086091 -0.05292087 11.94922015 -0.04882812 10.51757812 C-0.0378143 7.01168412 -0.02055755 3.5058525 0 0 Z " fill="#FDFDFD" transform="translate(122,123)"/>
</svg>
