<?xml version="1.0" encoding="UTF-8"?>
<svg version="1.1" xmlns="http://www.w3.org/2000/svg" width="960" height="1300">
<path d="M0 0 C1.69832977 -0.00101212 1.69832977 -0.00101212 3.43096924 -0.00204468 C21.65969729 0.01516771 39.49369428 0.66109764 57.5625 3.25 C59.34793213 3.49943359 59.34793213 3.49943359 61.16943359 3.75390625 C115.42123974 11.58182217 171.66467123 31.27980574 212.4140625 69.25390625 C214.37290872 71.07385246 216.38545875 72.78717373 218.4375 74.5 C249.41529048 101.76045562 265.46153384 138.64611175 275.46240234 177.77050781 C282.20723347 204.12986369 290.86737133 229.4527891 300.62792969 254.83300781 C303.6352813 262.68783567 306.46653127 270.58276507 309.125 278.5625 C309.44750732 279.52865234 309.77001465 280.49480469 310.10229492 281.49023438 C312.68458446 289.36086829 314.8493578 296.62354721 314.875 305 C314.89175781 306.27359375 314.90851562 307.5471875 314.92578125 308.859375 C314.54567112 312.40706954 314.08072952 313.78573254 311.5625 316.25 C305.90787279 318.31876605 300.87532111 316.50477819 295.5625 314.25 C285.48860626 309.03856305 276.59915761 302.40961429 267.68359375 295.4453125 C262.37890946 291.30537108 256.90627794 287.42285785 251.40185547 283.55517578 C249.40204933 282.13614689 247.42139212 280.69263571 245.44140625 279.24609375 C226.07046883 265.17437794 206.61415413 257.15851586 183.25 252.25 C181.67970431 251.91080004 180.10963925 251.57053083 178.53979492 251.22924805 C171.2341174 249.64662014 163.91813511 248.11334228 156.6015625 246.58203125 C127.86316635 240.55577815 104.46540528 233.44704159 81.5625 214.25 C81.04461914 213.81703613 80.52673828 213.38407227 79.99316406 212.93798828 C73.34425667 207.36229916 66.87132246 201.64519355 60.5625 195.6875 C53.88938713 189.42093255 46.9308741 183.68008236 39.5625 178.25 C39.00046875 177.83153809 38.4384375 177.41307617 37.859375 176.98193359 C-0.13111126 149.0663326 -49.37021827 140.38902318 -95.3984375 147.21484375 C-145.41454104 155.41513946 -192.40304536 179.82167365 -229.4375 214.25 C-230.70503302 215.33719295 -231.97580631 216.42062105 -233.25 217.5 C-242.89843218 225.93749535 -251.51339751 235.18679344 -259.4375 245.25 C-260.37907034 246.39264008 -261.323228 247.53315149 -262.26953125 248.671875 C-301.36288356 296.02108437 -322.70330314 357.01124369 -318.02587891 418.45678711 C-313.9899053 460.64979724 -295.37109447 502.73339766 -266.625 533.875 C-264.49261386 536.19016209 -262.4338264 538.55698197 -260.375 540.9375 C-257.31620537 544.38165459 -254.1132633 547.43633047 -250.58984375 550.3984375 C-249.08483422 551.69312809 -247.62106467 553.03661769 -246.19140625 554.4140625 C-189.90006368 608.33431888 -104.3613283 621.89947353 -29.62225342 620.30535889 C10.48287372 619.28914572 50.58626484 610.79374023 88.5625 598.25 C89.50931641 597.94513672 90.45613281 597.64027344 91.43164062 597.32617188 C122.60361845 587.26859297 152.55135007 573.17497343 180.5625 556.25 C181.3447998 555.77836426 182.12709961 555.30672852 182.93310547 554.82080078 C204.02364596 542.01908114 224.00382066 527.17534999 242.15625 510.4453125 C244.15851476 508.61857095 246.19141702 506.84870026 248.24609375 505.08203125 C253.07861024 500.86329278 257.60140911 496.35775213 262.125 491.8125 C262.93646484 491.00490234 263.74792969 490.19730469 264.58398438 489.36523438 C269.45137842 484.48998336 274.10182466 479.49902276 278.5625 474.25 C279.05903076 473.66984131 279.55556152 473.08968262 280.06713867 472.49194336 C281.02480904 471.37168313 281.98106064 470.25020827 282.93579102 469.12744141 C284.97162302 466.73693604 287.02110906 464.35831698 289.07226562 461.98095703 C290.01958839 460.88060997 290.96394805 459.77769958 291.90429688 458.67138672 C299.52007511 449.73252836 308.45094312 440.28834421 320.5625 438.25 C324.24875297 438.32088948 326.07656854 438.96748171 329.25 440.8125 C336.13682927 448.07159031 335.93400518 459.08401191 335.76171875 468.51953125 C334.9883615 490.92814349 328.95717947 512.60869098 323.5625 534.25 C324.84217897 533.62771563 326.11987479 533.00135205 327.39672852 532.37329102 C328.46432152 531.85074486 328.46432152 531.85074486 329.55348206 531.31764221 C338.26151611 526.68997586 344.6660372 517.90706741 350.5625 510.25 C351.29210937 509.31285156 352.02171875 508.37570312 352.7734375 507.41015625 C357.50710366 501.22317153 361.89970134 494.87576507 366.11303711 488.32519531 C368.31609832 484.93977175 370.44331891 481.84297777 373.5625 479.25 C377.66732311 478.57830167 379.71107771 478.71538601 383.25 480.9375 C394.6196656 494.0707771 391.33525598 519.99896273 390.5625 536.25 C389.89186829 543.07844842 388.39322941 549.6482788 386.5625 556.25 C386.17723145 557.63977051 386.17723145 557.63977051 385.78417969 559.05761719 C384.7161748 562.86468086 383.64058678 566.66752883 382.49365234 570.45166016 C382.24309082 571.2822998 381.9925293 572.11293945 381.734375 572.96875 C381.5084668 573.70029297 381.28255859 574.43183594 381.04980469 575.18554688 C380.40934526 577.54530483 380.40934526 577.54530483 380.5625 581.25 C387.1848972 573.59624586 393.1320559 565.81458612 398.5625 557.25 C399.33967282 556.04676458 400.11702421 554.84364448 400.89453125 553.640625 C407.62990883 543.12412366 413.64775673 532.2447035 419.5625 521.25 C421.2125 521.58 422.8625 521.91 424.5625 522.25 C425.04970213 523.60129647 425.52678184 524.95624316 426 526.3125 C426.26683594 527.06660156 426.53367187 527.82070313 426.80859375 528.59765625 C428.57775572 534.8218064 428.72179316 541.03727317 428.73046875 547.453125 C428.73379715 548.33039246 428.73712555 549.20765991 428.74055481 550.11151123 C428.74560012 551.96723918 428.74796388 553.82297614 428.74780273 555.67871094 C428.74996108 558.45003284 428.76806383 561.22093736 428.78710938 563.9921875 C428.84333932 581.08666274 427.20247681 597.60717002 423.875 614.375 C423.74655701 615.02887695 423.61811401 615.68275391 423.48577881 616.35644531 C420.88374628 629.52727622 417.57740055 642.43739781 413.5625 655.25 C413.26649902 656.19713867 412.97049805 657.14427734 412.66552734 658.12011719 C393.74362624 717.59479066 358.34998753 770.44862001 316.5625 816.25 C315.78003906 817.12527344 314.99757813 818.00054688 314.19140625 818.90234375 C308.42654633 825.29896914 302.45373674 831.4632417 296.375 837.5625 C295.62677979 838.3153125 294.87855957 839.068125 294.10766602 839.84375 C289.98608703 843.95396225 285.77469957 847.89437218 281.36450195 851.69311523 C278.94392228 853.78443573 276.59956278 855.95448633 274.25 858.125 C269.81618689 862.16402153 265.28195416 866.02506878 260.61328125 869.7890625 C258.38961326 871.58280236 256.18051522 873.38872383 253.98046875 875.2109375 C243.79111139 883.62255518 233.29090167 891.53996049 222.5625 899.25 C221.3556958 900.11842529 221.3556958 900.11842529 220.12451172 901.00439453 C202.67083942 913.51419806 184.54444938 924.87692284 166.1875 936 C165.58740112 936.3636264 164.98730225 936.72725281 164.36901855 937.10189819 C154.54391637 943.05390551 154.54391637 943.05390551 149.89160156 945.86230469 C133.98572861 954.5932936 133.98572861 954.5932936 124.5625 969.25 C123.53707663 980.657835 131.63981499 992.69258435 136.75 1002.375 C137.60863647 1004.01384155 137.60863647 1004.01384155 138.48461914 1005.68579102 C142.12720606 1012.60960315 145.85543017 1019.47939317 149.68676758 1026.30029297 C153.34823925 1032.82532631 156.89821863 1039.40801054 160.4375 1046 C164.78614053 1054.0979736 169.15190739 1062.18559207 173.5625 1070.25 C177.88199567 1078.15179742 182.16978671 1086.07011538 186.4375 1094 C187.02200928 1095.08506836 187.60651855 1096.17013672 188.20874023 1097.28808594 C191.18713345 1102.82073022 194.15488196 1108.3587231 197.10546875 1113.90625 C212.02834364 1147.69935311 212.02834364 1147.69935311 238.13265991 1171.0844574 C245.33877802 1172.94596814 252.11141812 1173.75038144 259.5390625 1173.91015625 C260.63036469 1173.94556015 261.72166687 1173.98096405 262.84603882 1174.0174408 C266.29295215 1174.12808105 269.74000915 1174.22178929 273.1875 1174.3125 C276.64202663 1174.40843222 280.09627333 1174.50835427 283.55038452 1174.61827087 C285.68719684 1174.68583826 287.82428304 1174.74541628 289.96157837 1174.79542542 C312.06352647 1175.47560223 324.20607457 1186.4881864 339.1015625 1201.62109375 C344.5625 1207.4547619 344.5625 1207.4547619 344.5625 1212.25 C336.42707531 1211.46015294 328.67512657 1209.40725069 320.76171875 1207.421875 C302.91272527 1202.8794496 302.91272527 1202.8794496 285.5625 1207.25 C284.39846342 1209.0239043 284.39846342 1209.0239043 284.5625 1211.25 C286.08311762 1213.79523008 286.08311762 1213.79523008 288.375 1216.3125 C289.20386719 1217.28316406 290.03273438 1218.25382812 290.88671875 1219.25390625 C293.4342539 1222.13539145 296.06224901 1224.93924741 298.6875 1227.75 C306.46430983 1236.24038958 312.77069831 1245.33198313 313.9375 1257 C313.50945787 1260.70969845 313.13524942 1262.51645375 310.5625 1265.25 C304.15789454 1267.01678771 299.57145974 1265.81945044 293.5625 1263.25 C290.59912321 1261.54949116 287.8417778 1259.60881532 285.0625 1257.625 C265.97358506 1244.49850155 246.11435229 1234.41691756 222.21875 1237.7109375 C205.38410284 1241.11794943 194.58733094 1251.00455606 184.47241211 1264.27807617 C175.99210706 1275.33148471 175.99210706 1275.33148471 169.5625 1276.25 C166.28776401 1274.13105319 165.53798921 1272.17996918 164.25 1268.5 C161.38798603 1252.39466682 166.49879012 1234.5120947 170.6953125 1219.04296875 C181.245527 1172.89766116 141.67539561 1112.17107566 118.5625 1074.25 C117.64186768 1072.73019531 117.64186768 1072.73019531 116.70263672 1071.1796875 C102.63908768 1048.03410951 87.15376679 1026.01617956 68.5625 1006.25 C67.84835937 1005.47140625 67.13421875 1004.6928125 66.3984375 1003.890625 C61.04850636 998.25712861 55.31038165 994.08619728 48.5625 990.25 C47.9540625 989.86070312 47.345625 989.47140625 46.71875 989.0703125 C43.47615065 987.83671492 40.2928529 988.00355245 36.875 988.0625 C35.63882935 988.07216797 35.63882935 988.07216797 34.37768555 988.08203125 C27.87210253 988.15673428 21.37303994 988.38548712 14.87133789 988.61279297 C-23.19518469 989.91973815 -61.11966304 989.5342542 -99.12060547 986.9296875 C-100.64941355 986.82941923 -102.17822213 986.72915857 -103.70703125 986.62890625 C-104.40630234 986.57799332 -105.10557343 986.52708038 -105.82603455 986.47462463 C-117.58372073 985.71718552 -125.54907327 991.232821 -134.4375 998.25 C-136.59490619 1000.21885976 -138.62383799 1002.24095286 -140.625 1004.3671875 C-142.41078585 1006.22224953 -144.27430614 1007.85093295 -146.25 1009.5 C-151.79571209 1014.28750927 -156.5978297 1019.76850362 -161.4375 1025.25 C-162.10072266 1025.99612549 -162.10072266 1025.99612549 -162.77734375 1026.75732422 C-170.68089751 1035.69572756 -177.75367496 1045.20967853 -184.72949219 1054.88183594 C-185.82302117 1056.39802106 -186.91973358 1057.91191839 -188.02050781 1059.42285156 C-199.60644833 1075.33023613 -209.9756372 1092.03883088 -219.38134766 1109.32275391 C-220.44901767 1111.27101721 -221.54161946 1113.20376473 -222.63671875 1115.13671875 C-238.94267374 1144.36417227 -245.19146156 1169.41585271 -240.57373047 1202.27612305 C-239.24557402 1211.79999867 -238.19576478 1221.22231987 -238.09375 1230.84765625 C-238.07807983 1231.64924667 -238.06240967 1232.4508371 -238.04626465 1233.27671814 C-238.07131193 1238.70081731 -238.07131193 1238.70081731 -239.78637695 1241.27294922 C-241.4375 1242.25 -241.4375 1242.25 -244.19921875 1242.28515625 C-248.45751858 1240.92393857 -250.98923577 1238.66826775 -254.25 1235.6875 C-254.86746094 1235.14391846 -255.48492187 1234.60033691 -256.12109375 1234.0402832 C-258.7509428 1231.71681432 -261.32738284 1229.35602557 -263.85546875 1226.921875 C-272.18342485 1218.98453597 -282.8709831 1213.31381008 -294.4375 1212.25 C-295.18773437 1212.16878906 -295.93796875 1212.08757812 -296.7109375 1212.00390625 C-317.26577555 1210.87714602 -335.44202336 1222.58861415 -350.4375 1235.25 C-363.79463854 1246.39011006 -363.79463854 1246.39011006 -370.6875 1246.125 C-373.61044332 1245.19497258 -374.56195499 1244.60372928 -376.4375 1242.25 C-379.43339333 1231.29186668 -375.57747615 1221.24945565 -370.4296875 1211.64453125 C-367.55515985 1206.74656159 -364.12423613 1202.54879194 -360.4375 1198.25 C-359.09493649 1196.548911 -357.76110437 1194.84088228 -356.4375 1193.125 C-355.57125 1192.00738281 -355.57125 1192.00738281 -354.6875 1190.8671875 C-354.06875 1190.06667969 -354.06875 1190.06667969 -353.4375 1189.25 C-364.4753876 1188.94987617 -375.30655179 1189.59962775 -386.29833984 1190.62646484 C-392.22290732 1191.14635213 -397.57855897 1191.35901384 -403.4375 1190.25 C-404.4375 1189.25 -404.4375 1189.25 -404.9375 1187.125 C-403.82852784 1180.74841011 -396.5185963 1176.34898125 -391.48828125 1172.77319336 C-390.79089844 1172.29116455 -390.09351563 1171.80913574 -389.375 1171.3125 C-388.63765625 1170.79888916 -387.9003125 1170.28527832 -387.140625 1169.75610352 C-372.70906557 1159.83130151 -359.82443609 1153.03832797 -342 1153.125 C-341.0920166 1153.1240332 -340.1840332 1153.12306641 -339.24853516 1153.12207031 C-333.24510778 1153.14460493 -327.29222443 1153.42299043 -321.30273438 1153.81591797 C-308.23517183 1154.99688435 -308.23517183 1154.99688435 -296.4375 1150.25 C-293.1278675 1146.97268813 -290.78292627 1143.24188445 -288.4375 1139.25 C-288.02483887 1138.55793457 -287.61217773 1137.86586914 -287.18701172 1137.15283203 C-283.49118985 1130.91454191 -279.95630468 1124.58934809 -276.4375 1118.25 C-275.49994873 1116.56414795 -275.49994873 1116.56414795 -274.54345703 1114.84423828 C-267.53330456 1102.23043549 -260.59948543 1089.57680786 -253.75 1076.875 C-249.08513627 1068.22688994 -244.30687992 1059.65038703 -239.45458984 1051.10620117 C-233.31015248 1040.28304802 -227.26378005 1029.40606504 -221.2421875 1018.51416016 C-220.06384683 1016.38288111 -218.8842167 1014.25231433 -217.703125 1012.12255859 C-205.87649036 993.25256558 -205.87649036 993.25256558 -200.125 972.375 C-200.08761719 971.53195312 -200.05023438 970.68890625 -200.01171875 969.8203125 C-200.59255703 966.31396768 -202.02972991 964.85052103 -204.4375 962.25 C-207.34075817 960.37269417 -207.34075817 960.37269417 -210.6796875 958.8359375 C-211.28988739 958.54133636 -211.90008728 958.24673523 -212.52877808 957.94320679 C-219.03787315 954.85990783 -225.7289776 952.24665356 -232.4548645 949.68051147 C-250.55908959 942.76130696 -268.23232786 935.14542334 -285.46777344 926.26367188 C-286.79952185 925.57831994 -288.13358155 924.89744356 -289.46972656 924.22070312 C-332.09788649 902.61492504 -375.81059155 869.76276132 -405.38671875 831.859375 C-407.29195233 829.43519208 -409.2799554 827.10513145 -411.30517578 824.78100586 C-426.26263353 807.53845434 -439.14031882 788.06069692 -450.4375 768.25 C-450.94265137 767.36538086 -451.44780273 766.48076172 -451.96826172 765.56933594 C-497.61151177 684.90820689 -514.47982541 592.01160307 -495.4375 413.25 C-495.02274414 411.51097412 -495.02274414 411.51097412 -494.59960938 409.73681641 C-487.05758124 378.69617803 -476.59815553 348.35141548 -463.4375 319.25 C-462.92719238 318.10885742 -462.41688477 316.96771484 -461.89111328 315.79199219 C-454.75711515 299.88419581 -447.13532623 284.36250906 -438.4375 269.25 C-437.95458496 268.41065918 -437.47166992 267.57131836 -436.97412109 266.70654297 C-410.73787385 221.44354146 -377.93365734 180.73963248 -341.0625 143.75 C-340.1351001 142.81792725 -339.2077002 141.88585449 -338.25219727 140.92553711 C-333.13985517 135.82515586 -327.92113412 130.94622442 -322.4375 126.25 C-320.82981627 124.79554483 -319.22510285 123.33779105 -317.625 121.875 C-312.37329043 117.14766687 -306.96482593 112.6500529 -301.4375 108.25 C-300.80344238 107.74339844 -300.16938477 107.23679687 -299.51611328 106.71484375 C-273.25641288 85.80102258 -245.30645409 67.59662982 -215.4375 52.25 C-214.46296875 51.74903809 -213.4884375 51.24807617 -212.484375 50.73193359 C-146.9665145 17.42052138 -73.40521595 0.03937404 0 0 Z " fill="#000000" transform="translate(521.4375,12.75)"/>
</svg>
