<?xml version="1.0" encoding="UTF-8"?>
<svg version="1.1" xmlns="http://www.w3.org/2000/svg" width="750" height="750">
<path d="M0 0 C247.5 0 495 0 750 0 C750 247.5 750 495 750 750 C502.5 750 255 750 0 750 C0 502.5 0 255 0 0 Z " fill="#FEFEFE" transform="translate(0,0)"/>
<path d="M0 0 C122.1 0 244.2 0 370 0 C370 247.5 370 495 370 750 C260.77 750 151.54 750 39 750 C39.33 749.34 39.66 748.68 40 748 C40.89248785 740.39190685 39.2102974 734.80944772 36 728 C35.42207201 726.71794549 34.84533989 725.43535152 34.26953125 724.15234375 C31.00580134 716.97230485 27.52014695 710.00995933 23.5625 703.1875 C11.48523614 682.21944761 -1.94405838 655.55102578 4.625 630.9375 C8.2025819 619.6830236 13.98423275 610.32895597 20.55078125 600.64453125 C29.83432983 586.9068812 37.097332 572.00716409 41.2109375 555.91796875 C41.95633533 553.1614728 42.91207013 550.63597238 44 548 C44.48949074 546.50333721 44.96901969 545.00337184 45.4375 543.5 C48.23522032 535.09285044 48.23522032 535.09285044 51.78515625 532.89453125 C58.90113817 530.02052797 67.08493512 532.06430651 74.00390625 534.6015625 C82.38187493 538.51200942 89.72121141 544.22308677 94.3125 552.3125 C96.35033081 560.2785659 94.73369477 566.80858213 91 574 C85.78669085 581.70819967 79.13295956 587.97368165 72.40820312 594.33789062 C67.69049009 598.92092503 64.43661178 602.85550072 62 609 C62.15787875 612.36574042 62.15787875 612.36574042 64 615 C80.04620963 616.60462096 98.47641438 605.25812347 111 596 C115.17976717 592.52444729 119.08878066 588.77133309 123 585 C124.05767578 584.03707031 124.05767578 584.03707031 125.13671875 583.0546875 C129.59100362 578.89993155 132.33459968 574.45111384 135 569 C135.37125 568.31292969 135.7425 567.62585938 136.125 566.91796875 C141.97850993 555.31855017 141.79271815 543.21498196 138 531 C133.0979473 518.64039828 121.99075837 505.99537919 110 500 C110 499.34 110 498.68 110 498 C109.278125 497.896875 108.55625 497.79375 107.8125 497.6875 C104.73980452 496.93639666 102.69796974 495.61878185 100 494 C99.13375 493.835 98.2675 493.67 97.375 493.5 C95 493 95 493 93.57641602 491.57177734 C90.92570018 488.92886136 87.38130556 487.92980268 83.9375 486.625 C83.15197754 486.32263428 82.36645508 486.02026855 81.55712891 485.70874023 C73.19523109 482.5686708 64.64485733 480.21741612 56 478 C60.15614485 473.04435248 64.47533467 468.36984627 69.0625 463.8125 C69.66126953 463.20986328 70.26003906 462.60722656 70.87695312 461.98632812 C74.1101264 458.76023738 77.42700911 455.85183676 81 453 C81.33 452.34 81.66 451.68 82 451 C82.66 451 83.32 451 84 451 C84.33 450.01 84.66 449.02 85 448 C86.58947754 446.43052673 86.58947754 446.43052673 88.60351562 444.76538086 C92.71729881 441.27302423 96.54563761 437.58389765 100.34375 433.75390625 C100.99831177 433.09792953 101.65287354 432.44195282 102.32727051 431.76609802 C104.38723823 429.70059855 106.44367366 427.63162405 108.5 425.5625 C109.9086205 424.14885566 111.31747267 422.73544214 112.7265625 421.32226562 C116.15372133 417.88416851 119.57772019 414.44295344 123 411 C123.66 411.33 124.32 411.66 125 412 C125.47067772 414.27747286 125.84808979 416.57429992 126.1875 418.875 C127.81024918 428.74077071 130.93364069 445.19739545 138.4375 452.375 C140 454 140 454 141.25 456.625 C147.23266846 468.16300346 156.93617605 476.30182034 169 481 C179.98409207 484.3313507 189.45295009 484.66124021 200.625 482.375 C201.49237793 482.1982373 202.35975586 482.02147461 203.25341797 481.83935547 C215.09826603 479.27765908 225.93364508 474.82434382 236 468 C237.02480469 467.30970703 237.02480469 467.30970703 238.0703125 466.60546875 C248.287546 459.33320255 256.95325771 450.57583001 259.65625 437.9296875 C260.20483144 433.2542775 260.45207675 430.13787951 258 426 C250.93809956 425.07888255 246.65693605 427.97767028 241 432 C239.4486701 433.2800447 237.90713507 434.57204144 236.375 435.875 C232.09030896 439.410381 227.63200089 441.96693174 222.6875 444.4375 C222.0054248 444.77958496 221.32334961 445.12166992 220.62060547 445.47412109 C213.59220188 448.87328749 207.1084526 450.32057405 199.5 447.875 C184.77031026 439.98409478 179.59605576 424.77144237 174.76708984 409.66162109 C171.86413331 399.58904563 170.28025168 387.9845876 174 378 C180.41223749 373.725175 187.4728728 373.68177797 194.9375 373.75 C195.77990234 373.74226563 196.62230469 373.73453125 197.49023438 373.7265625 C206.12894838 373.75316362 213.42541242 375.59918657 221.4375 378.8125 C242.48481867 386.98863179 263.95489564 391.18097827 286.51171875 391.24023438 C288.73215477 391.24992214 290.95165546 391.28103542 293.171875 391.3125 C311.91087287 391.45068129 331.18795986 387.36942305 345.3125 374.25 C355.13122806 363.85719309 357.95737086 349.88198207 358.23046875 336.078125 C357.95025528 333.55145438 357.49728055 332.06831547 356 330 C351.26999758 328.30732355 348.15887298 329.60822446 343.73046875 331.51171875 C339.69972345 333.70873443 336.40290168 336.57343 332.9296875 339.5546875 C325.63497653 345.64333959 317.73008486 351.19567569 309 355 C307.82179688 355.51820313 306.64359375 356.03640625 305.4296875 356.5703125 C300.455495 358.40794145 295.69855289 358.5362578 290.4375 358.5 C289.46949463 358.49427979 288.50148926 358.48855957 287.50415039 358.48266602 C274.55209266 358.16340623 264.12819336 353.51817644 252.97509766 347.13085938 C226.74853671 332.11461335 203.51960102 320.88242117 173 320 C173.53074855 283.46985862 173.53074855 283.46985862 184 268 C188.23988549 264.24265079 190.63752576 263.1852921 196.1875 262.75 C210.43621378 263.68434189 223.35072216 274.10949022 233 284 C234.3421726 285.2422523 235.69728151 286.47062017 237.0625 287.6875 C238.03896484 288.55955078 238.03896484 288.55955078 239.03515625 289.44921875 C240.95371149 290.96346613 242.80661992 291.94481559 245 293 C243.2372725 285.41100369 240.78349714 278.89266333 236.9375 272.125 C236.45434326 271.26293945 235.97118652 270.40087891 235.47338867 269.51269531 C229.38478932 258.87874948 222.17589 249.19664483 213 241 C212.32710937 240.39671875 211.65421875 239.7934375 210.9609375 239.171875 C199.38771309 229.49245095 185.04975621 224.66320217 170 226 C155.68098539 227.8357711 145.21601971 233.90350568 136 245 C126.48122363 258.00082876 119.17516924 274.73494531 120.125 291.08984375 C120 293 120 293 118 296 C117.63566627 298.12337771 117.63566627 298.12337771 117.5859375 300.44921875 C117.54726563 301.29677734 117.50859375 302.14433594 117.46875 303.01757812 C117.4378125 303.89865234 117.406875 304.77972656 117.375 305.6875 C117.33632813 306.58017578 117.29765625 307.47285156 117.2578125 308.39257812 C117.16359782 310.5948462 117.07798412 312.79710722 117 315 C113.31370033 312.67344341 110.29835438 310.52264459 107.5625 307.125 C105.3329329 304.46818105 103.11734205 302.13922045 100.4375 299.9375 C98.04092475 297.96698257 96.03301743 295.95907525 94.0625 293.5625 C91.98819856 291.04425079 89.82925576 288.90347189 87.33984375 286.796875 C82.87494286 282.93861548 78.67333239 278.85696819 74.5 274.6875 C73.77296875 273.97271484 73.0459375 273.25792969 72.296875 272.52148438 C71.26820313 271.49571289 71.26820313 271.49571289 70.21875 270.44921875 C69.2896582 269.52629028 69.2896582 269.52629028 68.34179688 268.5847168 C67 267 67 267 67 265 C66.34 265 65.68 265 65 265 C65 264.34 65 263.68 65 263 C66.56958008 261.79833984 66.56958008 261.79833984 68.76953125 260.4609375 C69.57052246 259.96706543 70.37151367 259.47319336 71.19677734 258.96435547 C72.05996582 258.43986816 72.9231543 257.91538086 73.8125 257.375 C81.10628493 252.85557119 88.17543867 248.21036868 95 243 C96.07794435 242.18986374 97.15607993 241.37998189 98.234375 240.5703125 C104.1586426 236.09271807 109.87270445 231.48684888 115.29296875 226.3984375 C117 225 117 225 119 225 C119.33 224.01 119.66 223.02 120 222 C121.7421875 220.31640625 121.7421875 220.31640625 123.875 218.5625 C126.10639842 216.72221385 127.9162724 215.1139737 129.6328125 212.77734375 C130.08398438 212.19082031 130.53515625 211.60429687 131 211 C131.66 211 132.32 211 133 211 C133.32291016 210.21882813 133.32291016 210.21882813 133.65234375 209.421875 C135.15190684 206.72700801 137.00497736 204.48366815 138.98583984 202.12915039 C150.98994128 187.82200131 164.31132099 167.09435255 163.95703125 147.640625 C163.09412754 137.93702861 160.16214187 130.84525792 153.02734375 124.1484375 C140.30279241 113.66396144 124.37009153 108.55126223 108 108 C107.04738281 107.96003906 106.09476562 107.92007813 105.11328125 107.87890625 C94.40682142 107.64098492 83.16258547 108.29955328 74 114.3125 C72.72623896 116.11282068 72.72623896 116.11282068 73.125 119.0625 C73.74650413 122.29255415 73.74650413 122.29255415 77 124 C77 124.66 77 125.32 77 126 C77.53367187 126.15855469 78.06734375 126.31710938 78.6171875 126.48046875 C86.95953029 129.09286329 95.29788289 132.08834289 101 139 C101.598125 139.721875 102.19625 140.44375 102.8125 141.1875 C104.89455932 146.11869313 104.83206479 151.13234815 103.34375 156.26171875 C102.36603156 158.60908587 101.24571543 160.78292314 100 163 C99.525625 163.85335937 99.05125 164.70671875 98.5625 165.5859375 C93.97503953 173.28316685 88.18943017 179.59926638 82 186 C81.26910156 186.78246094 80.53820312 187.56492188 79.78515625 188.37109375 C73.45734609 194.98171107 66.31381088 200.5321144 59 206 C58.36739258 206.47501953 57.73478516 206.95003906 57.08300781 207.43945312 C52.24296765 211 52.24296765 211 50 211 C50 211.66 50 212.32 50 213 C48.54462432 213.83848804 47.08559627 214.67063934 45.625 215.5 C44.81289063 215.9640625 44.00078125 216.428125 43.1640625 216.90625 C41 218 41 218 39 218 C40.01410987 208.89687256 41.13287023 199.81637263 42.4375 190.75 C42.56487549 189.85692139 42.69225098 188.96384277 42.82348633 188.04370117 C43.43162412 183.81177538 44.06099357 179.58609519 44.75390625 175.3671875 C46.54397818 164.18186525 47.62662615 152.95917012 48.53881836 141.67327881 C48.67767901 139.95658388 48.8196785 138.24013945 48.96508789 136.52398682 C50.16257261 122.22664948 50.49602542 108.82235326 46 95 C45.79165527 94.33307129 45.58331055 93.66614258 45.36865234 92.97900391 C41.68480747 81.19840173 37.43066968 69.64143404 33 58.125 C32.75500763 57.48381226 32.51001526 56.84262451 32.25759888 56.18200684 C22.07775371 28.40817486 22.07775371 28.40817486 5 5 C3.35 3.35 1.7 1.7 0 0 Z " fill="#FEFEFE" transform="translate(380,0)"/>
<path d="M0 0 C2.27124086 1.77974227 4.26948397 3.68650871 6 6 C6 6.66 6 7.32 6 8 C6.99 8.33 7.98 8.66 9 9 C10.39510141 11.08521554 11.61762428 13.11682818 12.8125 15.3125 C13.45832031 16.46363281 14.10414063 17.61476563 14.76953125 18.80078125 C19.76139569 28.09370274 24.16588466 37.48442009 28 47.3125 C28.8721492 49.52744088 29.74454361 51.74228522 30.6171875 53.95703125 C31.02936523 55.00713379 31.44154297 56.05723633 31.86621094 57.13916016 C32.7866304 59.46161393 33.72673983 61.77160826 34.6953125 64.07421875 C44.6523339 87.93298314 49.85435851 109.21416214 48 135 C47.93264648 135.95825684 47.86529297 136.91651367 47.79589844 137.90380859 C46.87377789 150.59261627 45.41284411 163.14303745 43.49462891 175.71679688 C42.89145185 179.72051112 42.31053614 183.72725857 41.73046875 187.734375 C41.39173256 190.06720456 41.05269984 192.3999908 40.71353149 194.73275757 C40.48899913 196.27796855 40.26485363 197.82323581 40.04110718 199.36856079 C39.72476661 201.5493975 39.4056973 203.72981859 39.0859375 205.91015625 C38.9007959 207.17996338 38.7156543 208.44977051 38.52490234 209.75805664 C38.12482569 212.22904173 37.66836984 214.59198051 37 217 C37.54269531 216.6390625 38.08539063 216.278125 38.64453125 215.90625 C39.35996094 215.4421875 40.07539063 214.978125 40.8125 214.5 C41.52019531 214.0359375 42.22789062 213.571875 42.95703125 213.09375 C45 212 45 212 48 212 C48 211.34 48 210.68 48 210 C49.625 208.73046875 49.625 208.73046875 52 207.1875 C71.44110815 193.90595087 91.32984413 177.55272687 100 155 C100.33 154.34 100.66 153.68 101 153 C101.62687913 147.37864122 101.61138414 142.30361177 98.3671875 137.515625 C94.37150875 133.0861297 89.12872586 131.01679927 83.68920898 128.82250977 C72.82423253 124.42252646 72.82423253 124.42252646 70 119 C69.8125 115.875 69.8125 115.875 71 113 C80.41601229 104.92913232 94.28578093 105.6780123 106 106 C107.29164063 106.02513672 107.29164063 106.02513672 108.609375 106.05078125 C126.86043328 107.0186404 144.53722437 114.68506877 157 128 C162.04111878 134.1933745 163.31969076 142.25967744 163 150.0625 C160.89018062 167.40717793 151.50514501 183.4645247 141 197 C140.3503125 197.84304687 139.700625 198.68609375 139.03125 199.5546875 C134.3110767 205.5672892 129.47781273 211.65856435 124 217 C123.34 217 122.68 217 122 217 C121.73832031 217.59683594 121.47664063 218.19367188 121.20703125 218.80859375 C119.92132852 221.14283074 118.72102904 222.3599093 116.6875 224.0625 C115.97722656 224.66191406 115.26695312 225.26132813 114.53515625 225.87890625 C113.69855469 226.57886719 112.86195313 227.27882812 112 228 C110.97663873 228.88269537 109.95457913 229.76690135 108.93359375 230.65234375 C102.53082147 236.18048834 96.02552108 241.27393303 89 246 C87.40998695 247.11042213 85.8200345 248.2209335 84.23168945 249.33374023 C66.1033206 262 66.1033206 262 63 262 C63 262.66 63 263.32 63 264 C63.66 264 64.32 264 65 264 C66.19921875 265.22265625 66.19921875 265.22265625 67.6875 267.0625 C75.48841788 276.24005045 84.25827117 284.86963112 93.4375 292.6640625 C97.59190064 296.21607505 101.11457249 300.23695187 104.5703125 304.44921875 C106.11481807 306.24681775 106.11481807 306.24681775 109 308 C109 308.66 109 309.32 109 310 C109.639375 310.309375 110.27875 310.61875 110.9375 310.9375 C113 312 113 312 114 313 C114.04898437 311.75863281 114.09796875 310.51726562 114.1484375 309.23828125 C114.22349799 307.59633306 114.29904439 305.95440703 114.375 304.3125 C114.42140625 303.08756836 114.42140625 303.08756836 114.46875 301.83789062 C114.68486081 297.38960969 115.31074085 294.140745 117 290 C117.01367698 287.66670675 117.01242439 285.33330025 117 283 C117.48659334 280.38218219 118.01736907 277.87950085 118.6875 275.3125 C118.95759888 274.26703003 118.95759888 274.26703003 119.2331543 273.20043945 C124.23602301 254.55454901 134.16213987 238.51123083 151.01171875 228.40625 C159.35163961 224.48158136 168.85435652 223.19957091 178 224 C178.84691406 224.06960937 179.69382812 224.13921875 180.56640625 224.2109375 C193.67992621 225.92886588 204.43497481 233.27401211 214 242 C215.04220703 242.92039063 215.04220703 242.92039063 216.10546875 243.859375 C225.17609605 252.33253583 231.6930685 262.9817738 237.5625 273.8125 C237.99224121 274.58827393 238.42198242 275.36404785 238.86474609 276.16333008 C241.67369515 281.5249872 242.65708159 285.95380702 243 292 C238.50542413 290.53238339 235.24015087 288.02169576 231.6875 285 C230.86282227 284.32324219 230.86282227 284.32324219 230.02148438 283.6328125 C228.63810029 282.47111357 227.31349409 281.24017305 226 280 C226 279.34 226 278.68 226 278 C225.16082031 277.60941406 225.16082031 277.60941406 224.3046875 277.2109375 C221.74528396 275.86616615 219.47837426 274.30388694 217.125 272.625 C216.24328125 272.00496094 215.3615625 271.38492187 214.453125 270.74609375 C212.57976257 269.4126654 210.72340259 268.05531791 208.875 266.6875 C201.36158595 262.27745262 193.40869388 262.35927924 185 264 C184.67 264.99 184.34 265.98 184 267 C183.34 267 182.68 267 182 267 C181.70996094 267.7321875 181.41992188 268.464375 181.12109375 269.21875 C180.44594404 270.89368586 179.7553182 272.56266908 179.03515625 274.21875 C174.18716987 285.5891277 172.65195594 296.69906386 172.2109375 308.93359375 C172.07538096 312.35201081 171.65038812 315.63610734 171 319 C172.26972656 318.95359375 173.53945313 318.9071875 174.84765625 318.859375 C198.75664594 318.24057607 219.09924886 326.93542178 239.45703125 338.95703125 C242.61908375 340.81985309 245.86573974 342.45550771 249.15844727 344.07348633 C251.52026446 345.2617531 253.78288554 346.59938485 256.0625 347.9375 C270.97009498 355.9411678 285.98816981 358.5996439 302.734375 355.25390625 C314.34550457 351.31132121 324.64409687 342.95048925 333.875 335.0625 C338.43324719 331.23878964 343.08973417 328.19012179 349 327 C352.32109878 327.35877563 353.54048376 327.49294759 355.8125 330 C359.46019687 339.2152342 356.2560173 351.21077595 352.9375 360.125 C350.10413314 366.52103229 345.98023852 371.16282039 341 376 C340.0925 376.9075 339.185 377.815 338.25 378.75 C323.46510865 388.98569401 307.17508163 391.18718328 289.65966797 391.18530273 C287.40182199 391.1874742 285.14447763 391.20562625 282.88671875 391.22460938 C274.06097124 391.2588527 265.70350671 390.61913101 257 389 C255.66861244 388.79397352 254.33667146 388.59144907 253.00390625 388.39453125 C240.20163372 386.22933419 227.29340962 382.68194899 215.41015625 377.40625 C203.09897229 372.32947311 187.4539356 372.18246949 174.6796875 375.66015625 C171.85181221 377.91588003 171.66381324 380.53419611 171 384 C170.96734067 386.71888935 171.02681045 389.24624925 171.25 391.9375 C171.28996094 392.60201172 171.32992187 393.26652344 171.37109375 393.95117188 C172.48831105 409.51672645 178.81791725 430.31677404 190.30078125 441.17578125 C196.21602719 446.00672679 200.28900125 447.49748379 208 447 C220.22003856 444.53930964 229.85111128 437.62451058 239.51806641 430.13891602 C240.17081543 429.63416748 240.82356445 429.12941895 241.49609375 428.609375 C242.07544678 428.15530273 242.6547998 427.70123047 243.25170898 427.23339844 C247.50580377 424.23218536 250.72475727 423.32860547 256 424 C258.50103349 426.2665616 258.93441182 428.0337741 259.16015625 431.359375 C258.72718069 443.34413838 252.6881551 452.22141865 244.36962891 460.33959961 C228.17088381 475.28758989 204.25464962 484.62556403 182.14355469 484.14257812 C167.74928968 483.18514637 155.08456837 476.91778501 145.375 466.3125 C144.22327434 464.89632231 143.09479097 463.46063821 142 462 C141.32324219 461.11248047 141.32324219 461.11248047 140.6328125 460.20703125 C138.75437518 457.58369637 138 456.29401741 138 453 C137.01 452.67 136.02 452.34 135 452 C134.0625 449.9375 134.0625 449.9375 133 447 C132.38446212 445.80756788 131.75841539 444.62053263 131.125 443.4375 C125.97244566 433.1515458 123.88278622 422.23966321 122 411 C117.05318895 415.1467312 112.40297775 419.46096439 107.859375 424.04296875 C107.21051331 424.69324539 106.56165161 425.34352203 105.89312744 426.01350403 C103.84303284 428.06914184 101.79645957 430.12824402 99.75 432.1875 C98.36221268 433.58031084 96.97419387 434.97289105 95.5859375 436.36523438 C92.53934477 439.4215986 89.49496193 442.4801439 86.45257568 445.54069519 C85.97322571 446.02226578 85.49387573 446.50383636 85 447 C84.48471741 447.55685989 83.96943481 448.11371979 83.4385376 448.68745422 C82 450 82 450 80 450 C79.67 450.99 79.34 451.98 79 453 C78.34 453 77.68 453 77 453 C76.67 453.99 76.34 454.98 76 456 C74.609375 457.3671875 74.609375 457.3671875 72.75 458.875 C66.45909851 464.19012298 60.77874426 470.14197419 55 476 C56.52753906 476.41958984 56.52753906 476.41958984 58.0859375 476.84765625 C66.18043992 479.12037317 74.1369384 481.64237718 82 484.625 C83.1744165 485.05824585 83.1744165 485.05824585 84.37255859 485.50024414 C86.28564644 486.24393838 88.14924536 487.11247902 90 488 C90.33 488.99 90.66 489.98 91 491 C92.83996741 491.66301589 92.83996741 491.66301589 95.0625 491.9375 C99.93408945 492.85092302 103.65931343 494.63235278 108 497 C108 497.66 108 498.32 108 499 C108.721875 499.2475 109.44375 499.495 110.1875 499.75 C113.27606582 501.12269592 115.51011418 502.72353296 118 505 C118 505.66 118 506.32 118 507 C118.83724609 507.3403125 118.83724609 507.3403125 119.69140625 507.6875 C128.9705555 512.96295541 135.08691265 523.56506982 138.03125 533.46875 C141.6658395 548.63376135 138.60927415 560.89641942 130.73046875 574.1328125 C123.67656727 584.31941343 113.53032404 593.59495754 103 600 C101.90816406 600.66644531 100.81632812 601.33289063 99.69140625 602.01953125 C77.49699491 615.25394244 77.49699491 615.25394244 66.3125 615.3125 C65.56613281 615.32925781 64.81976563 615.34601562 64.05078125 615.36328125 C61.44197888 614.90115055 60.55645189 614.11795668 59 612 C58.87108503 605.42533643 61.95303806 601.77812903 66 597 C68.89861455 593.99792468 71.91847617 591.13022172 74.9375 588.25 C83.44990175 579.94734767 91.88328534 571.31017648 92.3125 558.75 C92.20461836 552.76747254 90.29946055 548.54848047 86.3046875 544.12109375 C77.33148105 535.71098326 66.74739766 531.74577512 54.55078125 531.83203125 C52.20505068 531.98649743 50.21491439 532.21679829 48 533 C46.8043195 535.10234628 46.8043195 535.10234628 46 538 C45.55327825 539.34848602 45.10377071 540.69605058 44.65234375 542.04296875 C43.53874355 545.37467736 42.43962184 548.71064738 41.3515625 552.05078125 C35.25225692 570.70469541 27.97538602 587.39777666 16.875 603.625 C6.41439651 618.99379274 -0.71598478 634.87027687 2.69140625 653.8515625 C6.65806414 671.84782513 15.20804352 687.97561708 23.77246094 704.12915039 C39.30413538 733.42593297 39.30413538 733.42593297 39.25 742.25 C39.25515625 743.10078125 39.2603125 743.9515625 39.265625 744.828125 C39 747 39 747 37 749 C26.31854867 749 18.64069231 741.96769066 10.828125 735.3828125 C8.85617284 733.72136109 6.87813625 732.09400361 4.859375 730.4921875 C3.85390625 729.69039062 2.8484375 728.88859375 1.8125 728.0625 C0.89082031 727.33160156 -0.03085937 726.60070312 -0.98046875 725.84765625 C-1.64691406 725.23792969 -2.31335938 724.62820313 -3 724 C-3 723.34 -3 722.68 -3 722 C-3.99 721.67 -4.98 721.34 -6 721 C-6 720.34 -6 719.68 -6 719 C-6.66 719 -7.32 719 -8 719 C-10.9029222 715.86350934 -13.4169714 712.40169341 -16 709 C-16.59425781 708.24332031 -17.18851562 707.48664062 -17.80078125 706.70703125 C-35.31508767 683.31435992 -38.02686544 655.08342396 -34.11328125 626.79296875 C-33.75626345 624.52638385 -33.3857633 622.26186992 -33 620 C-32.82855469 618.99364502 -32.65710938 617.98729004 -32.48046875 616.95043945 C-31.95019876 613.96148757 -31.38813082 610.98053621 -30.8125 608 C-30.60399414 606.90550537 -30.39548828 605.81101074 -30.18066406 604.68334961 C-28.72288399 597.21196377 -27.01418726 589.82300762 -25.19775391 582.43188477 C-19.30956828 560.29117995 -19.30956828 560.29117995 -22 538 C-24.31075033 535.16746734 -25.515136 534.16162133 -29 533 C-45.96514353 531.44152225 -62.44618603 536.39437925 -75.9375 546.875 C-81.41718566 551.99903298 -83.22996622 556.96366171 -83.5 564.4375 C-83.28391352 570.49489194 -82.0692337 574.81560525 -79 580 C-78.46761719 580.9075 -77.93523437 581.815 -77.38671875 582.75 C-73.51560452 589.06738375 -69.32418363 594.77969711 -64 599.9375 C-59.66519408 604.4077686 -54.13761324 610.33947727 -53.8125 616.625 C-54 620 -54 620 -55 621 C-65.019564 622.38624441 -72.22550762 619.36128615 -81 615 C-81 614.34 -81 613.68 -81 613 C-81.72574219 612.7421875 -82.45148438 612.484375 -83.19921875 612.21875 C-86.12047667 610.94757501 -88.30872649 609.45983598 -90.8125 607.5 C-91.60269531 606.8915625 -92.39289063 606.283125 -93.20703125 605.65625 C-93.79871094 605.1096875 -94.39039063 604.563125 -95 604 C-95 603.34 -95 602.68 -95 602 C-95.99 601.67 -96.98 601.34 -98 601 C-114.43575679 583.44941474 -126.48150332 561.65384106 -126.28515625 537.22265625 C-125.87019164 532.53298768 -124.36275392 529.0224046 -122 525 C-121.401875 523.948125 -120.80375 522.89625 -120.1875 521.8125 C-116.8529935 517.52527736 -113.21644992 513.73881664 -108 512 C-107.21625 511.195625 -106.4325 510.39125 -105.625 509.5625 C-102.95336944 506.95447969 -101.39299983 506.32033033 -98 505 C-95.36176671 503.47322631 -92.7897278 501.86072897 -90.20703125 500.2421875 C-88 499 -88 499 -86 499 C-86 498.34 -86 497.68 -86 497 C-77.06677682 492.96230144 -68.03773472 489.51043767 -58.75488281 486.36108398 C-57.93600586 486.08208252 -57.11712891 485.80308105 -56.2734375 485.515625 C-55.54560059 485.27102539 -54.81776367 485.02642578 -54.06787109 484.77441406 C-51.95875649 483.98455438 -49.99494082 483.04215844 -48 482 C-49.76776959 480.20521865 -51.53902559 478.4141293 -53.3125 476.625 C-53.81201172 476.11710937 -54.31152344 475.60921875 -54.82617188 475.0859375 C-57.12542387 472.77145867 -59.27521225 470.81652517 -62 469 C-62 468.34 -62 467.68 -62 467 C-62.99 466.67 -63.98 466.34 -65 466 C-66.71415322 464.38221315 -68.37253306 462.70496537 -70 461 C-71.01462855 459.96908688 -72.03165281 458.94052739 -73.05078125 457.9140625 C-73.58002197 457.37966553 -74.1092627 456.84526855 -74.65454102 456.29467773 C-79.26586388 451.65076121 -83.88166195 447.12111926 -88.88671875 442.8984375 C-92.40748975 439.7356007 -95.68436117 436.31959109 -98.96508789 432.90991211 C-100.2739194 431.57031975 -101.63329669 430.28049587 -103 429 C-103.66 429 -104.32 429 -105 429 C-106.48776951 431.13062966 -106.48776951 431.13062966 -108 433.9375 C-108.62003906 435.02933594 -109.24007813 436.12117188 -109.87890625 437.24609375 C-110.21809082 437.8479248 -110.55727539 438.44975586 -110.90673828 439.06982422 C-116.89361226 449.63977189 -123.10635316 459.99403158 -130 470 C-130.82371094 471.2375 -130.82371094 471.2375 -131.6640625 472.5 C-142.35150349 488.30323028 -155.43732276 501.97296933 -171 513 C-171.53729736 513.40436279 -172.07459473 513.80872559 -172.62817383 514.2253418 C-176.92303994 517.41889764 -181.3291263 519.83209004 -186.1875 522.0625 C-186.9285498 522.40611572 -187.66959961 522.74973145 -188.43310547 523.10375977 C-201.9567368 529.26614961 -217.19660916 534.11736343 -232.0546875 529.765625 C-237.14733946 527.76128808 -242.41710305 525.23844276 -246 521 C-246 520.34 -246 519.68 -246 519 C-246.66 519 -247.32 519 -248 519 C-254.99103955 510.91512433 -257.63086308 499.41608087 -258 489 C-258.05994141 487.66775391 -258.05994141 487.66775391 -258.12109375 486.30859375 C-258.7569146 458.81869217 -258.7569146 458.81869217 -252 450 C-249.36328125 449.25 -249.36328125 449.25 -247 449 C-247 449.66 -247 450.32 -247 451 C-246.34 451 -245.68 451 -245 451 C-239.05796584 464.51860845 -239.05796584 464.51860845 -237.375 470 C-235.7523357 475.05558415 -233.37942634 478.65594356 -229.5625 482.375 C-223.21994901 485.26809343 -216.67341604 485.20656085 -210.0625 483.03515625 C-199.65984389 477.93726369 -192.66558161 468.77085851 -186.86328125 458.99609375 C-185.23844471 456.3834111 -183.51794552 453.93036729 -181.71875 451.4375 C-177.7009253 445.73459316 -174.43512067 439.72778639 -171.1875 433.5625 C-170.58655518 432.43392578 -169.98561035 431.30535156 -169.36645508 430.14257812 C-167.57059362 426.7653934 -165.78408475 423.38341807 -164 420 C-162.96880527 418.05075201 -161.93755903 416.10153127 -160.90625 414.15234375 C-156.89672617 406.60524776 -156.89672617 406.60524776 -153 399 C-153.81114258 399.2333606 -153.81114258 399.2333606 -154.63867188 399.47143555 C-169.31032509 403.66048154 -184.03055578 407.06436788 -199 410 C-199.89041992 410.17772949 -200.78083984 410.35545898 -201.69824219 410.53857422 C-242.18436361 418.61607877 -276.33397574 424.50302529 -315.36157227 407.53881836 C-319.04033876 405.98293933 -322.75597545 404.67425746 -326.55078125 403.44140625 C-327.24962936 403.21098129 -327.94847748 402.98055634 -328.66850281 402.7431488 C-331.62115679 401.76968871 -334.57614716 400.80341306 -337.53100586 399.83666992 C-367.27337108 390.08967101 -367.27337108 390.08967101 -372 381 C-372.79855007 377.73320426 -372.46165915 375.94114297 -370.98828125 372.9375 C-365.67235053 364.90081733 -357.37586317 361.16005401 -349 357 C-348.2457373 356.62343262 -347.49147461 356.24686523 -346.71435547 355.85888672 C-337.20020818 351.1510415 -327.52233228 346.87703408 -317.71704102 342.81494141 C-313.134173 340.91452975 -308.61441944 338.92770723 -304.125 336.8125 C-297.85965553 333.88499018 -291.49133843 331.37943856 -285 329 C-284.31824707 328.74686035 -283.63649414 328.4937207 -282.93408203 328.23291016 C-254.75966656 317.80238188 -229.39984249 320.3834501 -200.46484375 326.3125 C-189.06821427 328.57383798 -177.5440252 329.78211182 -166 331 C-168.82986845 325.09942323 -172.01843802 319.62123123 -175.5625 314.125 C-176.63514695 312.44336639 -177.70673705 310.76105826 -178.77734375 309.078125 C-179.31601074 308.23185547 -179.85467773 307.38558594 -180.40966797 306.51367188 C-182.85042935 302.65581508 -185.24470059 298.77038429 -187.625 294.875 C-188.07472168 294.13967041 -188.52444336 293.40434082 -188.98779297 292.64672852 C-191.68715184 288.21262457 -194.31914213 283.7440505 -196.91894531 279.25097656 C-204.52333747 264.40802254 -204.52333747 264.40802254 -216.8125 254.3125 C-222.43910242 253.50869965 -226.45316451 253.5859629 -231.375 256.75 C-239.42556194 262.94273996 -242.90076958 273.14965047 -246.0078125 282.45703125 C-247.08801699 285.22558685 -248.29378382 287.56495567 -250 290 C-253.1875 291.3125 -253.1875 291.3125 -256 292 C-260.93388385 287.19262599 -262.18509625 285.32516291 -262.375 278.4375 C-262.42862791 259.22005631 -252.79597391 239.95924427 -240 226 C-239.30261719 225.21109375 -238.60523438 224.4221875 -237.88671875 223.609375 C-229.30876167 214.40673543 -217.91697025 208.19897351 -205.1875 207.5625 C-185.95662369 208.25577611 -170.26625626 221.10933173 -157.53125 234.34375 C-157.0259375 234.8903125 -156.520625 235.436875 -156 236 C-155.4534375 236.5878125 -154.906875 237.175625 -154.34375 237.78125 C-138.11403722 255.7814769 -124.19500417 277.1893997 -111.9543457 298.07861328 C-110.48271873 300.5828221 -109.0084891 302.98886396 -107.24609375 305.30078125 C-106 307 -106 307 -106 309 C-101.52031907 305.88741516 -97.49326731 302.60318117 -93.6875 298.6875 C-89.60495204 294.49233002 -85.22799426 290.86587183 -80.65625 287.21875 C-77.3925325 284.49258597 -74.46483961 281.53318653 -71.55859375 278.43359375 C-70 277 -70 277 -68 277 C-68 276.34 -68 275.68 -68 275 C-66.34997172 273.64613064 -64.6825613 272.31321858 -63 271 C-62.67 270.34 -62.34 269.68 -62 269 C-62.81726563 268.76023437 -63.63453125 268.52046875 -64.4765625 268.2734375 C-68.68061782 266.75401174 -72.45633964 264.75864781 -76.375 262.625 C-77.81981172 261.84542533 -79.26512266 261.06677518 -80.7109375 260.2890625 C-81.41444336 259.91040039 -82.11794922 259.53173828 -82.84277344 259.14160156 C-86.19839187 257.36581254 -89.59673144 255.68242848 -93 254 C-93 253.34 -93 252.68 -93 252 C-94.24136719 251.86271484 -94.24136719 251.86271484 -95.5078125 251.72265625 C-99.67580268 250.86015269 -103.07210746 249.30077695 -106.875 247.4375 C-107.61459961 247.08179932 -108.35419922 246.72609863 -109.11621094 246.35961914 C-111.41558518 245.24926471 -113.70851707 244.12653909 -116 243 C-116.70608398 242.65453125 -117.41216797 242.3090625 -118.13964844 241.953125 C-122.78138226 239.67712162 -127.39671175 237.3526584 -132 235 C-132.5986084 234.69707031 -133.1972168 234.39414063 -133.81396484 234.08203125 C-142.79813825 229.51642635 -151.14391455 224.49741193 -158 217 C-158 216.34 -158 215.68 -158 215 C-158.66 215 -159.32 215 -160 215 C-160.5775 213.96875 -161.155 212.9375 -161.75 211.875 C-163.06276956 209.54529628 -164.37081801 207.51330137 -166 205.375 C-173.5077311 192.70570377 -174.16129246 176.31751452 -171.33984375 162.05078125 C-166.27967277 143.89112004 -153.46465552 129.74318778 -137.3984375 120.50390625 C-132.56150868 117.92469798 -128.47864138 116.3573027 -123 116 C-123 115.34 -123 114.68 -123 114 C-94.42226981 108.1875803 -94.42226981 108.1875803 -84 114 C-82.25 116.3125 -82.25 116.3125 -82 119 C-84.67302953 123.96606957 -87.17651999 125.98615312 -92.25 128.3125 C-99.66934752 132.08886453 -106.66698462 137.64103518 -109.6015625 145.796875 C-111.21352704 154.7100907 -110.76955828 163.75022901 -107 172 C-106.70609375 172.75023437 -106.4121875 173.50046875 -106.109375 174.2734375 C-95.02431329 199.8352589 -65.24373628 216.88116992 -42 230 C-40.18390797 231.07730085 -38.37097478 232.1599604 -36.5625 233.25 C-35.69753906 233.77078125 -34.83257812 234.2915625 -33.94140625 234.828125 C-33.30074219 235.21484375 -32.66007812 235.6015625 -32 236 C-34.84866305 218.74590264 -38.61719718 201.70609651 -42.625 184.6875 C-42.91576416 183.44468262 -42.91576416 183.44468262 -43.21240234 182.17675781 C-44.59647432 176.38029719 -46.24965158 170.69528262 -48 165 C-48.57378637 163.09140708 -49.14667435 161.18254389 -49.71875 159.2734375 C-50.31227466 157.30722363 -50.90602647 155.34107832 -51.5 153.375 C-51.79519531 152.39015625 -52.09039062 151.4053125 -52.39453125 150.390625 C-53.71117808 146.04047027 -55.05706572 141.7325921 -56.67578125 137.484375 C-62.4695732 122.23935312 -58.31005972 105.93050692 -52.83984375 91.29296875 C-52.5332785 90.46740479 -52.22671326 89.64184082 -51.91085815 88.79125977 C-50.9441533 86.19282003 -49.97282116 83.59615554 -49 81 C-48.69508636 80.18504059 -48.39017273 79.37008118 -48.07601929 78.53042603 C-23.1917895 12.11026446 -23.1917895 12.11026446 -8.4375 -0.125 C-5.06183803 -1.33677609 -3.39910637 -1.1792818 0 0 Z " fill="#020202" transform="translate(382,1)"/>
<path d="M0 0 C-1.62339805 1.70884005 -3.29319053 3.37446717 -5 5 C-5.66 5 -6.32 5 -7 5 C-7 5.66 -7 6.32 -7 7 C-9.375 9.625 -9.375 9.625 -12 12 C-12.66 12 -13.32 12 -14 12 C-14 12.66 -14 13.32 -14 14 C-15.29296875 15.26953125 -15.29296875 15.26953125 -17.1875 16.8125 C-21.95590259 20.83610721 -26.27798618 25.24599605 -30.60620117 29.73168945 C-32.03482136 31.19058334 -33.51364992 32.5999677 -35 34 C-35.66 34 -36.32 34 -37 34 C-37.20625 34.556875 -37.4125 35.11375 -37.625 35.6875 C-39.56274457 38.94643405 -41.99156223 40.69566469 -45 43 C-45.33 43 -45.66 43 -46 43 C-48.36420531 28.43750131 -49.0786275 13.70788993 -50 -1 C-43.52249162 -1.19372052 -37.04468365 -1.37109869 -30.56640625 -1.53710938 C-28.36252713 -1.59551607 -26.15874392 -1.65766653 -23.95507812 -1.72363281 C-20.78793804 -1.81779103 -17.62069736 -1.89849008 -14.453125 -1.9765625 C-13.46757629 -2.00875885 -12.48202759 -2.0409552 -11.46661377 -2.0741272 C-10.5459613 -2.09429901 -9.62530884 -2.11447083 -8.67675781 -2.13525391 C-7.8684552 -2.15746002 -7.06015259 -2.17966614 -6.22735596 -2.20254517 C-3.74082348 -1.97643172 -2.14452749 -1.24518108 0 0 Z " fill="#FBFBFB" transform="translate(467,387)"/>
<path d="M0 0 C7.01074502 0.26280632 10.26109594 2.13965525 15.3125 6.875 C15.91900391 7.41769531 16.52550781 7.96039063 17.15039062 8.51953125 C18.78780955 9.99302815 20.40429868 11.48149746 22 13 C22.55840576 13.51320801 23.11681152 14.02641602 23.69213867 14.55517578 C25 16 25 16 25 18 C25.66 18 26.32 18 27 18 C28.23298489 19.43292839 29.45962285 20.87238004 30.63671875 22.3515625 C32.13452925 24.22210559 32.13452925 24.22210559 34.625 26.5625 C36.94061187 28.93904903 38.58085814 31.00403384 40 34 C39 37 39 37 37 38 C32.99151902 38.3460072 28.9737817 38.4688751 24.95336914 38.61254883 C22.96909191 38.68632539 20.98548989 38.77759277 19.00195312 38.86914062 C12.00166809 39.12841044 5.67153936 39.29444475 -1 37 C-3.52942602 33.59792452 -3.18074841 30.26187635 -3.046875 26.15234375 C-3.02659241 25.49923721 -3.00630981 24.84613068 -2.9854126 24.17323303 C-2.93997257 22.79719194 -2.88922485 21.42131711 -2.83349609 20.0456543 C-2.750157 17.94146414 -2.68836772 15.83740722 -2.62890625 13.73242188 C-2.58201694 12.39318346 -2.53388217 11.05398795 -2.484375 9.71484375 C-2.44022461 8.49917725 -2.39607422 7.28351074 -2.35058594 6.03100586 C-2 3 -2 3 0 0 Z " fill="#FBFBFB" transform="translate(417,296)"/>
<path d="M0 0 C0.33 0 0.66 0 1 0 C1.33658532 13.76259957 0.30064871 27.30340807 -1 41 C-15.0097614 41.99058919 -28.95863074 42.1162069 -43 42 C-41.89041597 38.6712479 -41.07455496 37.98510301 -38.4375 35.8125 C-35.48987358 33.31673788 -32.70425934 30.75780903 -30 28 C-26.79970478 24.74970017 -23.45775424 21.75275755 -20 18.78125 C-17.21800568 16.30353631 -14.63601186 13.64606739 -12.0234375 10.9921875 C-9.3411705 8.35134548 -6.52192612 5.89328333 -3.6640625 3.4453125 C-2.39833536 2.34597202 -1.1854566 1.1854566 0 0 Z " fill="#FBFBFB" transform="translate(352,297)"/>
<path d="M0 0 C0.93425172 2.80275516 1.25860947 5.00659911 1.5 7.9296875 C1.5825 8.89003906 1.665 9.85039062 1.75 10.83984375 C1.8325 11.84144531 1.915 12.84304688 2 13.875 C2.16409052 15.85177803 2.33067531 17.82835093 2.5 19.8046875 C2.60828125 21.11928955 2.60828125 21.11928955 2.71875 22.46044922 C3.00186338 25.0168254 3.48353466 27.48193275 4 30 C4.11678799 32.67678073 4.0454506 35.31841457 4 38 C1.65942431 36.00802069 -0.67250976 34.00719342 -3 32 C-3.73347656 31.37351562 -4.46695312 30.74703125 -5.22265625 30.1015625 C-9.65338207 26.25602688 -13.59250995 22.28971687 -17.37890625 17.8125 C-19.69927333 15.21816187 -22.28843839 13.18103869 -25 11 C-28.01898195 8.18685772 -30.43162794 5.84964052 -32 2 C-26.2945486 1.07500175 -20.64605958 0.69749604 -14.875 0.4375 C-13.99457031 0.39431641 -13.11414063 0.35113281 -12.20703125 0.30664062 C-8.13498757 0.11317249 -4.07794303 -0.05922324 0 0 Z " fill="#F9F9F9" transform="translate(349,395)"/>
<path d="M0 0 C0.66 0.33 1.32 0.66 2 1 C-9.67401392 14.55800464 -9.67401392 14.55800464 -14 16 C-14.99 15.67 -15.98 15.34 -17 15 C-16.52691406 14.67128906 -16.05382812 14.34257812 -15.56640625 14.00390625 C-9.80653923 9.86084401 -4.90708944 5.1115515 0 0 Z " fill="#151515" transform="translate(293,295)"/>
<path d="M0 0 C0 5.61 0 11.22 0 17 C-0.33 17 -0.66 17 -1 17 C-1 13.04 -1 9.08 -1 5 C-1.66 5 -2.32 5 -3 5 C-3.33 5.66 -3.66 6.32 -4 7 C-4.33 6.01 -4.66 5.02 -5 4 C-1.125 0 -1.125 0 0 0 Z " fill="#D8D8D8" transform="translate(353,297)"/>
<path d="M0 0 C0.66 0.33 1.32 0.66 2 1 C1.67 1.99 1.34 2.98 1 4 C0.34 4 -0.32 4 -1 4 C-2.2065625 5.2375 -2.2065625 5.2375 -3.4375 6.5 C-6 9 -6 9 -9 9 C-6.03 6.03 -3.06 3.06 0 0 Z " fill="#E7E7E7" transform="translate(503,411)"/>
<path d="M0 0 C3.29148243 1.13499394 3.9959869 1.99283376 5.75 5.125 C6.1625 6.07375 6.575 7.0225 7 8 C5.1875 7.9375 5.1875 7.9375 3 7 C1.25 3.4375 1.25 3.4375 0 0 Z " fill="#0B0B0B" transform="translate(242,260)"/>
<path d="M0 0 C-0.33 1.65 -0.66 3.3 -1 5 C-2.65 5.33 -4.3 5.66 -6 6 C-6 5.01 -6 4.02 -6 3 C-2.66666667 0 -2.66666667 0 0 0 Z " fill="#F4F4F4" transform="translate(724,377)"/>
<path d="M0 0 C0.66 0.33 1.32 0.66 2 1 C0.07423885 3.43929746 -1.80090595 5.80090595 -4 8 C-5.32 7.34 -6.64 6.68 -8 6 C-5.36 4.02 -2.72 2.04 0 0 Z " fill="#141414" transform="translate(721,332)"/>
<path d="M0 0 C0.66 0.33 1.32 0.66 2 1 C1.25 5.75 1.25 5.75 -1 8 C-1.99 8 -2.98 8 -4 8 C-2.87548273 5.0280615 -1.77706209 2.66559313 0 0 Z " fill="#EEEEEE" transform="translate(533,182)"/>
<path d="M0 0 C1.65 0.33 3.3 0.66 5 1 C4.01 1.33 3.02 1.66 2 2 C1.67 2.99 1.34 3.98 1 5 C-1.0625 5.6875 -1.0625 5.6875 -3 6 C-2.01 4.02 -1.02 2.04 0 0 Z " fill="#E8E8E8" transform="translate(267,445)"/>
<path d="M0 0 C-0.99 0 -1.98 0 -3 0 C-3.66 1.32 -4.32 2.64 -5 4 C-6.32 3.34 -7.64 2.68 -9 2 C-4.13793103 -1.24137931 -4.13793103 -1.24137931 0 0 Z " fill="#0F0F0F" transform="translate(327,488)"/>
<path d="M0 0 C0.66 0.33 1.32 0.66 2 1 C0.02 3.97 0.02 3.97 -2 7 C-2.99 6.67 -3.98 6.34 -5 6 C-3.35 4.02 -1.7 2.04 0 0 Z " fill="#F0F0F0" transform="translate(452,461)"/>
<path d="M0 0 C2 1.8125 2 1.8125 4 4 C4 4.99 4 5.98 4 7 C2 6 0 5 -2 4 C-2 3.34 -2 2.68 -2 2 C-1.34 2 -0.68 2 0 2 C0 1.34 0 0.68 0 0 Z " fill="#111111" transform="translate(316,397)"/>
<path d="M0 0 C1.98 0.495 1.98 0.495 4 1 C3.34 2.32 2.68 3.64 2 5 C1.01 5 0.02 5 -1 5 C-0.67 3.35 -0.34 1.7 0 0 Z " fill="#F4F4F4" transform="translate(284,298)"/>
<path d="M0 0 C0.99 0.33 1.98 0.66 3 1 C1.95125002 3.62187494 1.35068687 4.79371361 -1.125 6.25 C-1.74375 6.4975 -2.3625 6.745 -3 7 C-2.38722388 4.03824877 -1.74627478 2.61941217 0 0 Z " fill="#F0F0F0" transform="translate(521,199)"/>
<path d="M0 0 C0.99 0.33 1.98 0.66 3 1 C1 3 -1 5 -3 7 C-3.66 7 -4.32 7 -5 7 C-4.34 5.68 -3.68 4.36 -3 3 C-2.34 3 -1.68 3 -1 3 C-0.67 2.01 -0.34 1.02 0 0 Z " fill="#F3F3F3" transform="translate(514,208)"/>
<path d="M0 0 C0.99 0.33 1.98 0.66 3 1 C1.3813036 4.23739279 -1.84489543 5.42244771 -5 7 C-3.70700306 4.11562221 -2.34058637 2.12780579 0 0 Z " fill="#EDEDED" transform="translate(149,258)"/>
<path d="M0 0 C1.32 0.66 2.64 1.32 4 2 C2.02 4.97 2.02 4.97 0 8 C-1.43088528 5.13822943 -0.59991697 3.06624227 0 0 Z " fill="#141414" transform="translate(324,108)"/>
</svg>
