<?xml version="1.0" encoding="UTF-8"?>
<svg version="1.1" xmlns="http://www.w3.org/2000/svg" width="480" height="477">
<path d="M0 0 C158.4 0 316.8 0 480 0 C480 157.41 480 314.82 480 477 C321.6 477 163.2 477 0 477 C0 319.59 0 162.18 0 0 Z " fill="#020202" transform="translate(0,0)"/>
<path d="M0 0 C158.4 0 316.8 0 480 0 C480 157.41 480 314.82 480 477 C321.6 477 163.2 477 0 477 C0 319.59 0 162.18 0 0 Z M281 58 C277.83139226 61.54827819 274.91422677 65.24276893 272 69 C270.5 70.75 269 72.5 267.5 74.25 C262.21712753 80.73227679 258.06218589 87.71430519 254 95 C253.56977539 95.77005371 253.13955078 96.54010742 252.69628906 97.33349609 C247.54669246 106.63231378 242.76021602 115.68008786 240 126 C238.44905765 122.43051775 236.93076361 118.86058554 235.52734375 115.23046875 C229.27387247 99.19851813 221.3993526 84.78179101 210.32275391 71.57861328 C208.22665828 69.07707133 206.18157573 66.534056 204.125 64 C203.39667969 63.11828125 202.66835937 62.2365625 201.91796875 61.328125 C200.80287856 59.97457357 199.69649663 58.61356754 198.61328125 57.234375 C195.20033277 52.92566928 191.19232247 49.51521197 187 46 C186.20851562 45.3090625 185.41703125 44.618125 184.6015625 43.90625 C159.24343076 22.27949501 125.51541111 9.51353983 92 12 C68.46248619 14.27324077 48.94184248 24.15915783 33.375 42.125 C18.40191091 61.24407672 11.79998524 86.04906976 14.21826172 110.17773438 C18.88479759 148.39576102 35.5940416 181.80506357 60.625 210.8125 C61.41414795 211.72757324 61.41414795 211.72757324 62.21923828 212.66113281 C72.52871809 224.45530598 84.07411229 233.58717964 97.61328125 241.40625 C98.40089844 241.9321875 99.18851562 242.458125 100 243 C100 243.66 100 244.32 100 245 C98.56982422 246.15405273 98.56982422 246.15405273 96.5546875 247.43359375 C95.81476563 247.91135254 95.07484375 248.38911133 94.3125 248.88134766 C93.508125 249.39487793 92.70375 249.9084082 91.875 250.4375 C56.27384964 273.78331706 26.81474404 307.32612711 17.5625 349.875 C17.0005967 352.57869385 16.4919457 355.28179154 16 358 C15.71189453 359.36705078 15.71189453 359.36705078 15.41796875 360.76171875 C12.70484247 381.78210836 15.59657215 401.14309946 25 420 C25.52464844 421.0621875 26.04929687 422.124375 26.58984375 423.21875 C37.44664771 443.39276224 56.42944322 456.29260723 78.0234375 462.9296875 C95.39723809 467.86319929 114.62561338 467.38931872 132 463 C132.92683594 462.7834375 133.85367188 462.566875 134.80859375 462.34375 C161.05807417 455.79113082 183.26343615 442.10050063 202.54931641 423.39941406 C203.87433663 422.12122222 205.22314182 420.86780499 206.57421875 419.6171875 C218.37857322 408.40210032 227.42840477 394.74623382 236 381 C237.31924889 378.99012232 238.65741221 376.99444556 240 375 C240.36609375 375.52464844 240.7321875 376.04929687 241.109375 376.58984375 C242.29979033 378.2932714 243.49284479 379.99485569 244.6875 381.6953125 C246.38819705 384.11865556 248.07113755 386.55367448 249.75 388.9921875 C264.11850031 409.76096365 280.69764799 429.08133175 302 443 C302.61053223 443.40154297 303.22106445 443.80308594 303.85009766 444.21679688 C332.79718281 463.00233623 366.42103628 470.40202125 400.47460938 463.59521484 C416.67142126 459.7777528 430.18544869 451.5975896 442 440 C443.04994141 438.98679687 443.04994141 438.98679687 444.12109375 437.953125 C458.45151563 423.09194675 465.03813735 401.16905749 466 381 C466.061875 379.74896484 466.061875 379.74896484 466.125 378.47265625 C466.56941001 360.00186538 462.92650816 340.6920339 455 324 C454.22849609 322.32164062 454.22849609 322.32164062 453.44140625 320.609375 C440.59084945 293.66178706 418.81215541 272.43232763 394.96484375 255.0546875 C394.29259766 254.56452148 393.62035156 254.07435547 392.92773438 253.56933594 C391.64296265 252.63696234 390.35416009 251.71010632 389.06054688 250.79003906 C385.35045786 248.12226969 382.14557302 245.31801464 379 242 C379.99257813 241.33355469 380.98515625 240.66710937 382.0078125 239.98046875 C395.06417728 231.15003021 407.52062961 221.83292121 419 211 C419.73476563 210.31808594 420.46953125 209.63617188 421.2265625 208.93359375 C447.68075002 183.55439971 465.29394815 146.72093632 466.203125 109.9609375 C466.34543899 97.94945515 466.35772321 86.61772229 463 75 C462.82307617 74.37593262 462.64615234 73.75186523 462.46386719 73.10888672 C455.47396573 48.92189611 441.18416757 31.85274827 419.32421875 19.69140625 C413.84046867 16.90120204 408.57521188 14.71442908 402.5625 13.375 C400.98662109 13.01535156 400.98662109 13.01535156 399.37890625 12.6484375 C353.45601703 3.83548997 312.47362656 26.15168741 281 58 Z " fill="#FDFDFD" transform="translate(0,0)"/>
<path d="M0 0 C0.77794922 0.33854004 1.55589844 0.67708008 2.35742188 1.02587891 C19.06617148 8.339839 32.94302147 17.49471117 46.50927734 29.66308594 C47.74205471 30.76866879 48.98843717 31.85906057 50.23828125 32.9453125 C69.60926867 50.83239405 82.7952453 78.89930244 84.10498047 105.10009766 C84.40725592 113.5619327 84.26305409 121.77622307 82 130 C61.87976752 121.94300425 49.20954338 101.55784423 37.5637207 84.3125 C36.55402797 82.8193213 35.52506896 81.33890936 34.47338867 79.875 C31.28179858 75.23840528 30.49471052 72.27446013 30.9375 66.5 C31.19242433 59.94386908 30.45674659 56.50918987 27 51 C27 50.34 27 49.68 27 49 C26.11441406 48.57074219 26.11441406 48.57074219 25.2109375 48.1328125 C23 47 23 47 19.625 44.875 C12.71515108 41.48429347 4.85833827 41.77071548 -2.359375 44.0703125 C-10.07853754 47.58425963 -14.98116487 51.9142237 -18.12109375 59.82421875 C-20.12475727 67.06412293 -20.41034127 75.28737654 -16.875 82.0625 C-13.13075142 87.73688235 -8.77344788 91.49478936 -2 93 C-0.12505649 93.06417217 1.7499518 93.12646327 3.625 93.1875 C21.74381418 94.54864244 41.8025706 115.58563287 53.1875 128.8125 C67 145.89343598 67 145.89343598 67 151 C65.46163292 151.65365399 63.91911234 152.29753603 62.375 152.9375 C61.51648438 153.29714844 60.65796875 153.65679687 59.7734375 154.02734375 C44.13328786 159.51241031 24.06696307 157.11153352 9.31640625 150.33984375 C-24.99970332 133.6991947 -50.07539287 97.99100953 -63 63 C-67.79550912 48.40268102 -67.8722194 29.76022007 -61.4375 15.75 C-49.44285112 -6.31314976 -21.73940539 -9.83328918 0 0 Z " fill="#FCFCFC" transform="translate(117,55)"/>
<path d="M0 0 C1.10126221 -0.01023193 2.20252441 -0.02046387 3.3371582 -0.03100586 C10.27912758 0.04377392 16.23168037 1.03567672 22.75 3.4375 C24.12627542 9.17997321 22.46012267 11.60942728 19.55078125 16.60546875 C16.88332178 20.8004972 13.95929318 24.64469897 10.75 28.4375 C10.10546875 29.21609375 9.4609375 29.9946875 8.796875 30.796875 C-2.33471483 43.74250169 -17.95203663 57.78851831 -33.25 65.4375 C-34.66607825 65.51870169 -36.08550455 65.54578804 -37.50390625 65.54296875 C-49.89915891 65.32991626 -49.89915891 65.32991626 -60.6875 70.625 C-64.36584952 74.89188544 -66.71329523 79.80209996 -67.25 85.4375 C-67.34796875 86.10910156 -67.4459375 86.78070313 -67.546875 87.47265625 C-68.29738063 96.34882864 -64.09916738 104.84387827 -58.47265625 111.55859375 C-51.76841766 117.65473814 -45.30780411 119.02011136 -36.41015625 118.78515625 C-30.34038843 118.11740676 -26.79312984 115.91204629 -22.4375 111.75 C-18.53465623 105.83997944 -17.21783216 100.54447597 -16.9375 93.5 C-16.4645637 86.78599355 -14.16616578 82.80739399 -10.25 77.4375 C-9.816875 76.83357422 -9.38375 76.22964844 -8.9375 75.60742188 C-2.83520297 67.12556065 3.50704511 58.98478073 10.75 51.4375 C11.65105469 50.47328125 12.55210937 49.5090625 13.48046875 48.515625 C21.75289086 39.82508214 31.13355203 32.13723965 41.75 26.4375 C42.74 26.4375 43.73 26.4375 44.75 26.4375 C49.52661452 47.76080949 45.47773975 71.15635906 33.94384766 89.59277344 C21.90631988 108.19309243 6.3422855 124.33089549 -12.25 136.4375 C-12.86439941 136.84291016 -13.47879883 137.24832031 -14.11181641 137.66601562 C-23.08058965 143.51917287 -32.16741859 147.82496219 -42.25 151.4375 C-43.16265625 151.76621094 -44.0753125 152.09492188 -45.015625 152.43359375 C-52.41695696 154.99465067 -59.12855606 155.64565703 -66.9375 155.6875 C-67.88044922 155.708125 -68.82339844 155.72875 -69.79492188 155.75 C-80.43109511 155.80848068 -89.77484996 152.99294323 -98.25 146.4375 C-109.09943139 135.24137625 -109.71126314 123.32463846 -109.53125 108.46484375 C-108.53131942 76.74204616 -87.80239868 49.02820954 -65.6875 27.9375 C-54.32814055 18.02059889 -41.25214799 9.99194324 -27.25 4.4375 C-26.21746094 4.00566406 -25.18492187 3.57382812 -24.12109375 3.12890625 C-16.12705661 0.29421087 -8.42391687 0.06073948 0 0 Z " fill="#FCFCFC" transform="translate(163.25,272.5625)"/>
<path d="M0 0 C1.48512085 -0.02235718 1.48512085 -0.02235718 3.00024414 -0.04516602 C13.20050727 0.09869149 23.00437061 3.0671392 30.4609375 10.27734375 C41.31924756 21.84579645 41.22975515 34.72936735 41.015625 49.8359375 C40.01630934 79.15192721 20.84649437 106.60559414 1.6875 127.5625 C0.82898438 128.50351563 -0.02953125 129.44453125 -0.9140625 130.4140625 C-12.03428296 142.05913112 -24.4630851 150.44083308 -39.3125 156.5625 C-40.53646484 157.08457031 -40.53646484 157.08457031 -41.78515625 157.6171875 C-49.93074579 160.91309078 -58.15484698 160.77199636 -66.8125 160.8125 C-68.46572266 160.8434375 -68.46572266 160.8434375 -70.15234375 160.875 C-76.24272908 160.90424555 -81.0650581 160.83478119 -86.3125 157.5625 C-87.453125 155.71484375 -87.453125 155.71484375 -87.3125 153.5625 C-81.33628585 141.48095596 -70.68605491 129.96832718 -60.3125 121.5625 C-59.47847656 120.8303125 -58.64445312 120.098125 -57.78515625 119.34375 C-33.63991629 98.41125116 -33.63991629 98.41125116 -19.375 98.609375 C-13.35066441 98.51716578 -8.98191567 95.94158251 -4.4375 92.1875 C0.75601652 85.77197959 2.11050396 79.57392345 2.03515625 71.51171875 C1.22808153 64.66518604 -2.95151875 56.94538075 -8.3125 52.5625 C-15.63619143 47.7828277 -22.53314962 44.89146698 -31.3125 46.5625 C-38.39348873 48.71446474 -42.41839165 52.10952403 -46.25390625 58.37890625 C-48.34243621 62.68698097 -48.22439668 65.58054326 -47.75 70.3125 C-47.698218 85.77805622 -62.80213337 99.5652499 -72.3125 110.5625 C-72.92407959 111.27414307 -73.53565918 111.98578613 -74.16577148 112.71899414 C-74.77364502 113.42145264 -75.38151855 114.12391113 -76.0078125 114.84765625 C-76.55324707 115.47808838 -77.09868164 116.10852051 -77.66064453 116.75805664 C-84.97259612 124.74543976 -94.82708756 133.62222856 -105.3125 136.5625 C-111.57983114 127.16150329 -109.1631912 108.36133125 -107.81640625 97.59765625 C-107.14021673 94.50704989 -106.30668251 91.56509153 -105.3125 88.5625 C-104.9721875 87.44230469 -104.631875 86.32210937 -104.28125 85.16796875 C-100.01376394 72.09158411 -93.3458625 60.92328409 -84.3125 50.5625 C-83.63703125 49.77746094 -82.9615625 48.99242187 -82.265625 48.18359375 C-79.99198097 45.59877581 -77.66697499 43.07393999 -75.3125 40.5625 C-74.85278809 40.06878906 -74.39307617 39.57507813 -73.91943359 39.06640625 C-60.77171677 25.0584768 -45.93207329 13.40136073 -28.3125 5.5625 C-27.68085938 5.27874512 -27.04921875 4.99499023 -26.3984375 4.70263672 C-17.73725214 0.99037657 -9.38695073 0.10456387 0 0 Z " fill="#FCFCFC" transform="translate(388.3125,50.4375)"/>
<path d="M0 0 C32.42920488 16.36137999 57.88814533 44.08063691 69.9921875 78.48828125 C72.42485522 86.9649025 73.31944708 94.87350871 73.25 103.6875 C73.25773438 104.68072266 73.26546875 105.67394531 73.2734375 106.69726562 C73.24459324 117.5499176 70.26725426 127.81069524 62.6875 135.875 C54.12474895 143.75347073 42.7995977 146.56701406 31.4375 146.4375 C29.98960083 146.4228772 29.98960083 146.4228772 28.51245117 146.40795898 C-3.98973339 145.61232838 -31.83612766 124.21964653 -53.57421875 101.734375 C-70.61775575 83.53020154 -83.39195634 61.36246389 -83.3125 36 C-83.32861328 34.97132813 -83.34472656 33.94265625 -83.36132812 32.8828125 C-83.36546869 26.37383944 -82.51020452 21.01765261 -80 15 C-70.5693836 14.22468774 -62.29978414 21.80560494 -55.25 27.4375 C-46.27841409 35.06075508 -38.59351049 43.39088608 -31.59765625 52.84228516 C-30.45663859 54.38328669 -29.30430584 55.91593628 -28.14453125 57.44287109 C-14.45960875 75.62456079 -14.45960875 75.62456079 -15.75390625 87.8203125 C-16.23385678 94.02157811 -13.44962963 98.24518518 -9.625 102.875 C-2.66385758 108.51021053 4.32671225 109.02141438 12.97998047 108.30615234 C19.48772972 107.31984372 25.72337843 103.87999054 30.0625 98.9375 C31.0215625 97.4834375 31.0215625 97.4834375 32 96 C32.5775 95.13375 33.155 94.2675 33.75 93.375 C37.27379639 86.67978687 37.14391239 77.69951268 35.38671875 70.48046875 C33.06622151 65.1341249 29.15808885 62.46783306 24 60 C20.40781623 58.80260541 17.71821197 59.08077179 13.9375 59.25 C0.38488918 59.46895673 -8.18312975 51.33775077 -17.71289062 42.4777832 C-20.37899017 39.88741391 -23.0081859 37.26510918 -25.625 34.625 C-26.93984375 33.32175781 -26.93984375 33.32175781 -28.28125 31.9921875 C-56 4.19118602 -56 4.19118602 -56 -7 C-40.40794282 -15.03714287 -14.62358166 -7.33053901 0 0 Z " fill="#FCFCFC" transform="translate(354,282)"/>
<path d="M0 0 C0.86592773 0.00499512 1.73185547 0.00999023 2.62402344 0.01513672 C14.15031404 0.32315591 24.77901509 3.51943203 33.375 11.5 C33.96410156 11.97695312 34.55320312 12.45390625 35.16015625 12.9453125 C42.66083534 19.50634608 47.4615609 29.67771037 48.375 39.5 C49.17113098 52.81205051 45.61146396 64.40234234 37.125 74.875 C29.38295297 83.11377129 18.35331903 87.99220001 7.18359375 88.703125 C-8.56306228 88.92208198 -20.79303519 85.7611708 -32.296875 74.91015625 C-40.64545453 66.26741537 -44.73632248 55.85270511 -45.0625 43.8125 C-44.61921638 32.25942066 -40.31033656 21.66748524 -32.4140625 13.1015625 C-23.01322237 4.47075706 -12.81525953 -0.0982688 0 0 Z " fill="#FCFCFC" transform="translate(239.625,194.5)"/>
</svg>
