<?xml version="1.0" standalone="no"?>
<!DOCTYPE svg PUBLIC "-//W3C//DTD SVG 20010904//EN"
 "http://www.w3.org/TR/2001/REC-SVG-20010904/DTD/svg10.dtd">
<svg version="1.0" xmlns="http://www.w3.org/2000/svg"
 width="480.000000pt" height="477.000000pt" viewBox="0 0 480.000000 477.000000"
 preserveAspectRatio="xMidYMid meet">

<g transform="translate(0.000000,477.000000) scale(0.100000,-0.100000)"
fill="#000000" stroke="none">
<path d="M3700 4653 c-367 -39 -680 -224 -972 -573 -118 -141 -242 -352 -299
-508 -12 -31 -25 -61 -29 -65 -4 -5 -20 24 -35 65 -72 196 -162 351 -306 528
-219 269 -457 428 -758 507 -132 34 -347 43 -476 18 -271 -51 -457 -192 -584
-442 -83 -165 -112 -399 -76 -614 77 -470 410 -971 793 -1194 34 -20 62 -39
62 -43 0 -4 -42 -34 -92 -67 -405 -262 -665 -619 -754 -1037 -27 -125 -25
-336 4 -453 46 -185 153 -354 291 -465 128 -102 270 -159 459 -186 97 -14 131
-15 223 -5 340 37 622 176 884 436 113 112 235 266 307 387 22 37 45 72 52 77
9 8 27 -12 72 -81 287 -447 643 -716 1052 -797 143 -28 238 -34 348 -21 326
39 560 194 689 455 62 127 87 231 93 396 17 492 -212 888 -737 1269 -72 52
-129 100 -127 105 1 6 22 23 47 39 515 338 787 756 824 1266 14 181 -26 403
-96 543 -71 142 -189 271 -316 346 -150 88 -363 133 -543 114z m-2573 -421
c199 -67 365 -173 528 -337 203 -203 316 -421 346 -667 12 -95 7 -245 -8 -286
l-9 -22 -59 35 c-109 66 -219 189 -384 433 -63 92 -63 92 -57 146 20 155 -94
276 -249 264 -225 -19 -342 -261 -210 -434 34 -44 97 -72 180 -80 55 -5 83
-13 130 -42 139 -83 268 -198 386 -344 66 -82 119 -163 119 -181 0 -11 -103
-47 -165 -58 -235 -41 -497 65 -723 290 -139 139 -289 354 -361 518 -131 299
-94 611 88 737 108 75 276 85 448 28z m2938 7 c123 -46 205 -162 226 -317 32
-238 -67 -519 -281 -798 -261 -341 -586 -514 -876 -465 -89 15 -124 29 -124
51 0 24 66 124 140 209 72 84 213 203 342 291 83 56 93 60 147 60 164 0 264
91 264 240 0 141 -92 258 -225 290 -102 25 -209 -26 -260 -124 -18 -33 -22
-56 -20 -117 l2 -76 -71 -104 c-133 -193 -260 -329 -403 -430 -74 -52 -99 -59
-112 -31 -14 31 -17 310 -4 375 45 229 189 459 415 659 202 180 385 279 570
309 81 13 204 3 270 -22z m-1474 -1448 c82 -31 146 -77 194 -139 108 -137 124
-327 43 -486 -27 -52 -103 -132 -156 -163 -138 -81 -351 -84 -494 -6 -61 33
-148 124 -181 189 -102 203 -29 455 166 572 84 51 135 62 262 58 83 -2 124 -9
166 -25z m-804 -762 c34 -6 70 -17 79 -23 15 -12 15 -16 -4 -59 -62 -140 -198
-285 -428 -458 l-141 -106 -76 5 c-96 6 -151 -13 -201 -68 -41 -46 -56 -92
-56 -181 0 -150 112 -273 260 -286 75 -7 123 10 175 61 46 47 75 127 75 212 0
43 7 59 57 134 82 123 156 213 255 311 83 83 254 209 283 209 35 0 39 -256 5
-385 -45 -176 -148 -343 -311 -505 -169 -169 -373 -301 -564 -366 -96 -32
-274 -44 -367 -25 -119 25 -208 93 -254 195 -26 55 -29 74 -32 191 -3 113 0
143 22 228 52 202 172 404 346 578 118 118 214 190 341 254 187 95 336 118
536 84z m1483 1 c222 -36 415 -139 608 -324 285 -275 428 -597 392 -882 -18
-137 -74 -227 -177 -281 -87 -46 -148 -56 -282 -50 -134 6 -210 26 -345 93
-257 127 -509 361 -645 598 -74 130 -104 231 -109 371 -4 113 7 211 27 243 6
11 16 10 50 -1 72 -25 151 -79 242 -165 105 -100 172 -181 273 -330 l76 -112
0 -85 c0 -50 6 -99 14 -118 18 -45 87 -102 142 -117 59 -17 159 -8 210 18 158
80 215 291 111 409 -43 49 -82 63 -174 63 -127 0 -205 48 -386 234 -176 181
-296 334 -312 399 -6 23 -3 27 27 36 45 13 179 13 258 1z"/>
</g>
</svg>
