<?xml version="1.0" standalone="no"?>
<!DOCTYPE svg PUBLIC "-//W3C//DTD SVG 20010904//EN"
 "http://www.w3.org/TR/2001/REC-SVG-20010904/DTD/svg10.dtd">
<svg version="1.0" xmlns="http://www.w3.org/2000/svg"
 width="200.000000pt" height="200.000000pt" viewBox="0 0 200.000000 200.000000"
 preserveAspectRatio="xMidYMid meet">

<g transform="translate(0.000000,200.000000) scale(0.100000,-0.100000)"
fill="#000000" stroke="none">
<path d="M967 1543 c-4 -3 -7 -17 -7 -30 0 -28 -16 -31 -23 -3 -3 11 -12 23
-21 26 -24 9 -48 -15 -41 -43 6 -27 0 -29 -21 -8 -9 8 -22 15 -29 15 -20 0
-36 -33 -24 -51 15 -24 10 -29 -16 -17 -41 19 -74 -23 -40 -52 22 -18 18 -28
-8 -23 -32 6 -52 -19 -37 -46 6 -12 17 -21 25 -21 27 0 16 -19 -12 -22 -38 -4
-45 -44 -11 -57 13 -5 26 -7 31 -4 4 2 7 -1 7 -6 0 -6 -7 -11 -15 -11 -8 0
-19 -9 -25 -21 -15 -27 5 -52 37 -46 26 5 30 -5 8 -23 -34 -29 -1 -71 40 -52
26 12 31 7 16 -17 -12 -18 4 -51 24 -51 7 0 20 7 29 15 21 21 25 19 23 -11 -1
-16 5 -31 16 -38 15 -9 22 -6 42 18 l23 29 4 -29 c2 -21 9 -30 26 -32 18 -3
26 3 35 27 11 29 11 29 22 8 6 -14 20 -22 35 -22 22 0 25 5 25 33 0 35 6 40
25 17 29 -34 71 -1 52 40 -13 28 -10 30 17 13 36 -22 68 25 36 52 -17 14 -21
35 -4 25 5 -4 21 -4 35 -1 30 8 32 39 4 59 -20 14 -19 14 6 26 32 14 30 54 -3
59 -13 2 -23 6 -23 9 0 2 10 13 23 23 18 15 20 22 11 37 -7 11 -22 17 -38 16
-30 -2 -32 2 -11 23 31 31 4 75 -34 55 -29 -16 -32 -14 -19 14 19 41 -23 74
-52 40 -18 -22 -28 -18 -23 8 9 46 -49 59 -63 14 -6 -18 -8 -17 -20 11 -12 30
-40 42 -57 25z m99 -193 c21 -14 39 -36 50 -65 16 -43 16 -48 -1 -91 -22 -57
-62 -84 -128 -84 -40 0 -53 5 -83 33 -30 28 -37 42 -41 83 -8 83 47 144 131
144 22 0 53 -9 72 -20z"/>
<path d="M173 1400 c-65 -136 -78 -200 -77 -385 0 -144 3 -169 27 -248 51
-167 124 -284 254 -408 183 -175 411 -259 668 -246 231 12 430 98 589 254 183
179 276 399 276 653 0 151 -30 280 -93 405 l-31 60 -8 -75 c-40 -384 -289
-721 -603 -820 -98 -31 -252 -31 -350 0 -314 99 -561 433 -603 820 l-9 75 -40
-85z"/>
</g>
</svg>
