<?xml version="1.0" encoding="UTF-8"?>
<svg version="1.1" xmlns="http://www.w3.org/2000/svg" width="200" height="200">
<path d="M0 0 C66 0 132 0 200 0 C200 66 200 132 200 200 C134 200 68 200 0 200 C0 134 0 68 0 0 Z " fill="#FEFEFE" transform="translate(0,0)"/>
<path d="M0 0 C0.66 0 1.32 0 2 0 C2.15855469 1.258125 2.31710938 2.51625 2.48046875 3.8125 C5.41259148 25.8412892 11.7568134 45.53449552 26 63 C26.69867188 63.86238281 27.39734375 64.72476563 28.1171875 65.61328125 C40.72245491 80.3941909 57.76833812 89.10168475 76.97265625 91.34765625 C96.90717246 92.02290496 114.28448098 82.76418931 128.4921875 69.55859375 C147.12421253 50.54928472 154.89611416 25.92319468 158 0 C161.64100853 3.15344367 163.38024923 6.51440864 165.0625 10.9375 C165.31854004 11.60934326 165.57458008 12.28118652 165.83837891 12.97338867 C166.58165553 14.97493658 167.2962895 16.98424318 168 19 C168.34675781 19.97710937 168.69351563 20.95421875 169.05078125 21.9609375 C175.6082278 44.64783789 170.80152164 70.15167552 160.1875 90.6875 C157.03067557 96.27516081 153.12544459 101.10625399 149 106 C148.04287109 107.24716797 148.04287109 107.24716797 147.06640625 108.51953125 C133.7195199 124.54084095 111.45356429 134.66483262 91 137 C62.87421801 138.4898782 39.29403467 131.82510496 17.5625 113.41015625 C0.85076346 97.69195283 -10.38052949 75.29669706 -11.2734375 52.296875 C-11.6953515 33.00537386 -8.96346757 17.15687779 0 0 Z " fill="#020202" transform="translate(20,52)"/>
<path d="M0 0 C2.4375 0.25 2.4375 0.25 5 1 C5.66 1.99 6.32 2.98 7 4 C7.66 3.01 8.32 2.02 9 1 C11.475 1.495 11.475 1.495 14 2 C14.495 4.475 14.495 4.475 15 7 C15.66 6.34 16.32 5.68 17 5 C19.125 5.375 19.125 5.375 21 6 C21.5534764 8.07553648 22 9.84365964 22 12 C22.61875 11.79375 23.2375 11.5875 23.875 11.375 C24.926875 11.189375 24.926875 11.189375 26 11 C26.66 11.66 27.32 12.32 28 13 C27.44444444 17.55555556 27.44444444 17.55555556 26 19 C27.65 19.33 29.3 19.66 31 20 C31.495 21.98 31.495 21.98 32 24 C30.02 24.99 30.02 24.99 28 26 C28 26.66 28 27.32 28 28 C29.65 28.33 31.3 28.66 33 29 C32.67 30.65 32.34 32.3 32 34 C30.68 34 29.36 34 28 34 C28 34.66 28 35.32 28 36 C29.32 36.66 30.64 37.32 32 38 C32 39.32 32 40.64 32 42 C29.03 42.495 29.03 42.495 26 43 C26.66 43.99 27.32 44.98 28 46 C28 47.32 28 48.64 28 50 C25.6875 50.625 25.6875 50.625 23 51 C22.01 50.34 21.02 49.68 20 49 C20.66 49.99 21.32 50.98 22 52 C21.625 54.1875 21.625 54.1875 21 56 C19.1875 56.625 19.1875 56.625 17 57 C16.01 56.34 15.02 55.68 14 55 C14 56.65 14 58.3 14 60 C11.625 60.625 11.625 60.625 9 61 C8.34 60.34 7.68 59.68 7 59 C6.608125 59.515625 6.21625 60.03125 5.8125 60.5625 C4.9153125 61.2740625 4.9153125 61.2740625 4 62 C1.3125 61.6875 1.3125 61.6875 -1 61 C-1 59.35 -1 57.7 -1 56 C-1.66 56 -2.32 56 -3 56 C-3.33 57.32 -3.66 58.64 -4 60 C-5.875 60.625 -5.875 60.625 -8 61 C-10.35953094 58.64046906 -10.49141413 57.22104383 -11 54 C-11 54.66 -11 55.32 -11 56 C-12.65614657 56.38218767 -14.32457024 56.71395102 -16 57 C-17 56 -17 56 -17.0625 52.9375 C-17.0315625 51.4834375 -17.0315625 51.4834375 -17 50 C-17.78375 50.20625 -18.5675 50.4125 -19.375 50.625 C-20.24125 50.74875 -21.1075 50.8725 -22 51 C-22.66 50.34 -23.32 49.68 -24 49 C-23.64644564 46.73725212 -23.02455574 45.04911148 -22 43 C-23.65 42.67 -25.3 42.34 -27 42 C-27.625 40.1875 -27.625 40.1875 -28 38 C-27.34 37.01 -26.68 36.02 -26 35 C-26.99 34.34 -27.98 33.68 -29 33 C-28.67 31.35 -28.34 29.7 -28 28 C-26.35 28 -24.7 28 -23 28 C-23 27.34 -23 26.68 -23 26 C-24.32 25.67 -25.64 25.34 -27 25 C-27.625 23.125 -27.625 23.125 -28 21 C-25.8614515 18.8614515 -24.86724686 18.57344937 -22 18 C-22.66 17.34 -23.32 16.68 -24 16 C-23.625 13.875 -23.625 13.875 -23 12 C-20.92446352 11.4465236 -19.15634036 11 -17 11 C-17 9.35 -17 7.7 -17 6 C-13.25 4.875 -13.25 4.875 -11 6 C-10.67 6.33 -10.34 6.66 -10 7 C-9.67 5.35 -9.34 3.7 -9 2 C-7.125 1.375 -7.125 1.375 -5 1 C-3 3 -3 3 -3 6 C-2.34 6 -1.68 6 -1 6 C-1.020625 5.195625 -1.04125 4.39125 -1.0625 3.5625 C-1 1 -1 1 0 0 Z " fill="#060606" transform="translate(97,45)"/>
<path d="M0 0 C3.79727475 1.79507533 5.53142782 3.33492982 7.9375 6.75 C9.2867678 10.87717209 9.22239692 13.85376181 8 18 C5.83656626 22.02846282 4.23135031 24.30440475 0 26 C-4.28936017 26.74722522 -8.31319334 26.9617225 -12.171875 24.76171875 C-15.14081474 22.28964702 -16.76063075 20.71810774 -18 17 C-18.50171564 10.87906919 -18.08833623 7.8832905 -14 3 C-9.64690293 -0.89000163 -5.60592788 -0.78819523 0 0 Z " fill="#FAFAFA" transform="translate(104,63)"/>
</svg>
