<?xml version="1.0" standalone="no"?>
<!DOCTYPE svg PUBLIC "-//W3C//DTD SVG 20010904//EN"
 "http://www.w3.org/TR/2001/REC-SVG-20010904/DTD/svg10.dtd">
<svg version="1.0" xmlns="http://www.w3.org/2000/svg"
 width="500.000000pt" height="500.000000pt" viewBox="0 0 500.000000 500.000000"
 preserveAspectRatio="xMidYMid meet">

<g transform="translate(0.000000,500.000000) scale(0.100000,-0.100000)"
fill="#000000" stroke="none">
<path d="M2470 4961 c-21 -22 -46 -54 -55 -73 -48 -90 -71 -142 -127 -282
-140 -350 -150 -406 -100 -566 80 -250 156 -560 150 -607 -3 -22 -7 -21 -98
33 -127 76 -267 181 -327 248 -107 117 -139 255 -80 345 15 23 49 55 75 70 65
40 93 67 86 85 -10 25 -80 38 -158 31 -233 -23 -415 -193 -433 -404 -6 -77 16
-190 43 -212 8 -6 14 -17 14 -23 0 -19 77 -95 133 -130 28 -18 108 -60 176
-92 189 -89 365 -181 367 -190 1 -5 -24 -31 -55 -59 -31 -27 -94 -84 -140
-125 -46 -41 -87 -76 -92 -78 -5 -2 -19 14 -31 35 -36 60 -191 294 -232 348
-62 82 -167 186 -228 226 -216 139 -430 20 -537 -298 -28 -82 -28 -142 0 -172
19 -20 23 -21 42 -8 12 8 37 50 54 92 38 91 82 142 131 151 58 11 94 -14 157
-113 155 -240 246 -396 238 -404 -10 -10 -176 9 -323 36 -146 26 -247 30 -333
11 -155 -35 -619 -240 -680 -301 -36 -37 -43 -69 -23 -100 22 -34 38 -41 331
-141 l260 -89 110 1 c115 1 353 42 614 104 68 17 127 28 130 24 15 -15 -189
-367 -269 -462 -74 -89 -110 -112 -172 -112 -81 0 -104 24 -153 162 -10 26
-25 54 -35 63 -17 16 -19 15 -34 -7 -39 -60 -45 -259 -11 -359 49 -144 194
-197 362 -134 229 86 375 228 562 548 35 59 69 107 75 107 6 -1 96 -83 200
-184 l189 -183 -54 -17 c-88 -27 -181 -68 -236 -103 -29 -18 -63 -37 -75 -42
-46 -18 -136 -110 -154 -157 -15 -40 -16 -55 -6 -120 34 -215 235 -448 413
-478 79 -14 72 40 -18 140 -142 157 -168 271 -79 352 97 88 308 135 362 80 39
-39 36 -126 -11 -323 -84 -356 -87 -554 -10 -723 42 -92 151 -216 260 -297 22
-17 42 -33 45 -37 3 -4 27 -17 54 -29 34 -15 51 -18 59 -10 26 26 6 86 -101
300 -181 360 -184 431 -32 675 75 121 108 191 156 340 16 48 39 100 52 113 20
22 30 25 72 21 50 -5 139 -45 178 -82 39 -35 55 -75 49 -123 -6 -53 -36 -98
-140 -210 -63 -68 -78 -89 -75 -111 5 -40 49 -40 143 -1 169 70 308 191 354
308 48 123 14 249 -99 360 -70 69 -215 145 -358 188 l-94 28 228 223 c126 122
231 222 235 222 4 0 10 -19 14 -43 15 -100 64 -218 123 -297 40 -54 72 -79
139 -112 152 -72 388 -13 539 137 74 74 104 135 90 188 -12 50 -57 40 -152
-34 -110 -85 -208 -111 -273 -73 -29 17 -87 95 -109 148 -50 113 -70 289 -37
316 9 7 55 15 109 18 89 4 100 3 218 -36 197 -65 262 -76 438 -77 136 0 163 3
220 23 156 55 240 166 240 318 0 96 -43 94 -176 -7 -116 -89 -164 -111 -255
-117 -98 -6 -146 10 -309 98 -207 112 -300 147 -422 157 l-78 6 6 71 c26 341
145 394 391 172 91 -83 107 -72 52 37 -123 242 -307 371 -485 338 -179 -33
-300 -215 -319 -479 -4 -48 -8 -93 -11 -100 -2 -9 -72 52 -177 153 -94 92
-173 170 -175 174 -1 4 24 22 55 41 187 113 406 310 497 449 66 99 108 209
108 282 0 101 -50 166 -168 220 -135 61 -361 65 -423 8 -20 -19 -21 -23 -8
-42 7 -12 49 -40 92 -62 115 -58 138 -109 94 -204 -34 -76 -100 -150 -234
-265 -63 -55 -174 -130 -181 -123 -3 3 4 74 16 158 45 329 61 485 55 544 -11
108 -167 529 -237 641 -34 52 -92 114 -108 114 -7 0 -30 -18 -50 -39z m386
-1960 c67 -49 196 -189 192 -208 -3 -16 -18 -18 -132 -21 -86 -2 -133 1 -142
9 -10 8 -14 38 -14 111 0 144 19 166 96 109z m-502 -108 c-3 -71 -7 -134 -10
-140 -2 -10 -41 -13 -151 -13 l-148 1 56 52 c144 136 245 226 251 227 4 0 4
-57 2 -127z m612 -618 c-81 -80 -152 -145 -156 -145 -7 0 -15 58 -26 212 l-7
87 159 3 c87 2 163 0 169 -5 5 -4 -55 -70 -139 -152z m-632 73 c11 -51 27
-230 21 -236 -6 -6 -245 227 -245 240 0 4 39 9 88 11 48 1 97 4 109 5 16 1 24
-4 27 -20z"/>
</g>
</svg>
