<?xml version="1.0" encoding="UTF-8"?>
<svg version="1.1" xmlns="http://www.w3.org/2000/svg" width="480" height="479">
<path d="M0 0 C158.4 0 316.8 0 480 0 C480 158.07 480 316.14 480 479 C321.6 479 163.2 479 0 479 C0 320.93 0 162.86 0 0 Z " fill="#FDFDFD" transform="translate(0,0)"/>
<path d="M0 0 C0.87172852 -0.01039307 1.74345703 -0.02078613 2.64160156 -0.03149414 C12.34574143 0.10241339 20.79234675 3.04751321 28.1875 9.4375 C37.26028263 20.49702335 36.34593821 34.8861637 35.1875 48.4375 C34.37713633 52.72133469 32.92307562 56.70467374 31.43359375 60.7890625 C26.76053451 74.47131117 27.22338195 91.13776588 28.1875 105.4375 C30.09215085 107.34215085 32.96377909 106.93697117 35.52539062 107.23632812 C44.9988487 108.37042669 54.02981265 110.25244277 63.1875 112.9375 C64.207229 113.23414551 65.22695801 113.53079102 66.27758789 113.83642578 C70.97032005 115.25932485 75.09146194 116.66592934 79.1875 119.4375 C81.37880534 120.13329454 81.37880534 120.13329454 83.1875 120.4375 C83.1875 121.0975 83.1875 121.7575 83.1875 122.4375 C93.5776793 125.03504482 101.86428488 122.39876008 111.14453125 117.37890625 C116.62925026 113.42817197 120.45261197 105.8743117 121.83984375 99.38671875 C123.5246765 85.09403646 119.40949829 75.13522758 111.1875 63.4375 C109.15080193 60.95137293 107.06109591 58.57496182 104.8515625 56.2421875 C102.56294893 53.76016997 101.2223461 52.18669116 101.0625 48.75 C101.10375 47.986875 101.145 47.22375 101.1875 46.4375 C110.55103285 46.13271955 117.66906352 47.61289586 126.1875 51.4375 C126.1875 52.0975 126.1875 52.7575 126.1875 53.4375 C126.868125 53.64375 127.54875 53.85 128.25 54.0625 C131.59564123 55.62854483 133.73321673 57.62172074 136.34375 60.1953125 C138.50808756 61.90312366 138.50808756 61.90312366 143.1875 61.4375 C143.5175 52.1975 143.8475 42.9575 144.1875 33.4375 C145.8375 33.1075 147.4875 32.7775 149.1875 32.4375 C156.75954377 40.24351141 160.2737313 47.78586633 162.1875 58.4375 C165.9506495 56.40669691 168.33740145 54.38346158 170.9375 51 C171.96617187 49.67548828 171.96617187 49.67548828 173.015625 48.32421875 C174.49612017 46.35643829 175.96441279 44.3794317 177.421875 42.39453125 C188.55022545 27.25613727 188.55022545 27.25613727 194.1875 24.4375 C200.72083333 24.20416667 200.72083333 24.20416667 203.1875 25.4375 C202.78725881 29.84015312 201.00966334 32.33576533 198.34375 35.69140625 C197.08230878 37.59635295 196.61688641 39.20761832 196.1875 41.4375 C195.5275 41.4375 194.8675 41.4375 194.1875 41.4375 C188.86596325 56.45183582 189.92870146 73.33240174 194.1875 88.4375 C194.5652415 90.32877719 194.92010298 92.22479317 195.25 94.125 C195.85012306 97.58070861 196.51548775 101.0079759 197.25 104.4375 C199.5718699 116.06513196 201.4844052 130.15812384 197.1875 141.4375 C196.5275 141.4375 195.8675 141.4375 195.1875 141.4375 C195.001875 142.015 194.81625 142.5925 194.625 143.1875 C192.28555775 146.8492357 188.4473146 148.7859637 184.30932617 149.97900391 C180.86274536 150.72376041 177.38520587 150.62794851 173.875 150.625 C172.6679541 150.6259668 172.6679541 150.6259668 171.43652344 150.62695312 C166.51574618 150.58418066 161.80837821 150.20315644 156.9375 149.4375 C147.07157015 147.90973333 137.1449749 148.2601022 127.1875 148.4375 C128.59878079 152.78829933 130.70141875 155.30629871 133.875 158.5625 C138.78083674 163.82127463 142.54145621 169.26246015 146.1875 175.4375 C147.00734375 176.75814453 147.00734375 176.75814453 147.84375 178.10546875 C152.22767723 185.20786065 155.31507821 192.40965647 157.75 200.375 C158.06227539 201.37176758 158.06227539 201.37176758 158.38085938 202.38867188 C163.93791051 220.34892179 165.25150304 237.984122 159.05078125 255.88671875 C157.30960319 261.03146661 155.76943564 266.24200579 154.1875 271.4375 C153.5275 271.4375 152.8675 271.4375 152.1875 271.4375 C152.06375 272.46875 151.94 273.5 151.8125 274.5625 C151.1875 278.4375 151.1875 278.4375 150.1875 281.375 C149.34368226 283.95919182 148.92454291 286.07788708 148.625 288.75 C148.1875 292.4375 148.1875 292.4375 147.1875 293.4375 C147.03129445 294.85077947 146.93693827 296.2710459 146.87109375 297.69140625 C146.82919922 298.54541016 146.78730469 299.39941406 146.74414062 300.27929688 C146.68516602 301.62604492 146.68516602 301.62604492 146.625 303 C146.58181641 303.90169922 146.53863281 304.80339844 146.49414062 305.73242188 C146.38771858 307.96728485 146.28570012 310.20226308 146.1875 312.4375 C146.8475 312.4375 147.5075 312.4375 148.1875 312.4375 C148.40664063 312.95699219 148.62578125 313.47648437 148.8515625 314.01171875 C151.21240141 319.20364497 153.51021109 322.15344609 158.1875 325.4375 C161.6549699 326.5933233 164.87497958 326.69518842 168.48828125 326.83203125 C169.95511864 326.90083435 171.42191466 326.97052395 172.88867188 327.04101562 C175.19243889 327.14812768 177.49589196 327.24984611 179.80053711 327.33618164 C182.0309036 327.42208461 184.25914752 327.53146572 186.48828125 327.64453125 C187.16973709 327.66449661 187.85119293 327.68446198 188.55329895 327.70503235 C193.49797686 327.98254974 196.51478547 329.11201189 200.1875 332.4375 C203.43785692 337.88906276 203.62803948 343.67947662 203.62890625 349.87109375 C203.64211411 350.74846695 203.65532196 351.62584015 203.66893005 352.52980042 C203.70951213 355.3115663 203.73139701 358.09300697 203.75 360.875 C203.77393229 363.65332105 203.80228587 366.43134257 203.84178162 369.20948792 C203.86578243 370.93019696 203.88092881 372.65106235 203.88539124 374.37193298 C203.97776351 381.57509809 205.29588269 388.272006 207.66015625 395.078125 C207.91990234 395.83867187 208.17964844 396.59921875 208.44726562 397.3828125 C208.71216797 398.14335937 208.97707031 398.90390625 209.25 399.6875 C212.46272167 408.96355969 212.46272167 408.96355969 213.1875 413.4375 C213.8475 413.4375 214.5075 413.4375 215.1875 413.4375 C216.7649398 415.59562922 218.20764842 417.74002261 219.625 420 C220.02009766 420.60908203 220.41519531 421.21816406 220.82226562 421.84570312 C226.12921019 430.19023326 228.58905544 437.46393141 227.1875 447.4375 C225.81698667 450.35459955 224.41024815 452.04804574 222.1875 454.4375 C220.265625 454.078125 220.265625 454.078125 218.1875 453.4375 C217.775 452.695 217.3625 451.9525 216.9375 451.1875 C214.75644498 447.76012782 212.33265852 446.48716426 208.83203125 444.55078125 C208.28933594 444.18339844 207.74664062 443.81601562 207.1875 443.4375 C207.1875 442.7775 207.1875 442.1175 207.1875 441.4375 C206.32125 441.31375 205.455 441.19 204.5625 441.0625 C201.1875 440.4375 201.1875 440.4375 198.3125 439.375 C194.44459693 438.21462908 191.13534009 437.51537677 187.1875 438.4375 C180.94475687 441.88177207 176.69973219 446.92100947 172.6953125 452.71484375 C172.19773437 453.28332031 171.70015625 453.85179687 171.1875 454.4375 C170.1975 454.4375 169.2075 454.4375 168.1875 454.4375 C168.11015625 453.22513672 168.11015625 453.22513672 168.03125 451.98828125 C167.48091481 445.83168422 167.48091481 445.83168422 164.625 440.52734375 C160.43359854 437.62885443 155.91295415 436.43365002 150.8359375 436.69140625 C143.07414641 438.87798752 136.90699135 446.39926078 131.625 452.22265625 C130.1875 453.4375 130.1875 453.4375 127.1875 453.4375 C127.23271217 442.60918557 131.66888319 436.854217 139.0625 429.3125 C142.71538973 425.76382184 146.49597876 422.41191067 150.36328125 419.1015625 C154.46542511 415.35956404 158.87604656 411.29971771 159.49609375 405.6015625 C159.90377608 394.40882955 156.9230436 386.43151593 149.60913086 377.91943359 C134.40952194 362.0750877 111.03697107 353.72477665 89.46289062 353.09399414 C73.00514401 352.88874962 56.2016201 356.09740721 43.75 367.7109375 C40.2615257 371.46104738 38.00154766 374.64156283 36.1875 379.4375 C35.548125 380.38625 34.90875 381.335 34.25 382.3125 C30.48595035 388.01560553 28.68880717 393.85484547 27.1875 400.4375 C26.5275 400.4375 25.8675 400.4375 25.1875 400.4375 C24.94 401.5925 24.6925 402.7475 24.4375 403.9375 C22.78040716 410.51919271 20.22827399 415.82879235 15.1875 420.4375 C14.07319364 421.69945195 12.9702102 422.97143987 11.875 424.25 C10.64897606 425.64859454 9.41987324 427.04449692 8.1875 428.4375 C7.43726563 429.29021484 7.43726563 429.29021484 6.671875 430.16015625 C1.42132611 435.76869711 -4.87630393 439.97216479 -11.17773438 444.30224609 C-12.56766292 445.26747425 -13.93493021 446.26520404 -15.296875 447.26953125 C-22.75273891 452.64373973 -31.51039139 456.28314624 -40.8125 455.4375 C-40.53732232 450.75947941 -38.48056114 448.69111247 -35.28515625 445.57421875 C-33.8125 444.4375 -33.8125 444.4375 -31.8125 444.4375 C-31.41998047 443.60605469 -31.41998047 443.60605469 -31.01953125 442.7578125 C-29.66600343 440.15588523 -28.11115913 437.76317664 -26.5 435.3125 C-21.84719277 428.04248871 -17.82932909 420.87151257 -15.8125 412.4375 C-15.1525 412.4375 -14.4925 412.4375 -13.8125 412.4375 C-10.21781184 390.29488949 -10.21781184 390.29488949 -17.015625 369.53125 C-19.50759071 366.31377528 -22.32297529 364.43151412 -25.8125 362.4375 C-25.8125 361.7775 -25.8125 361.1175 -25.8125 360.4375 C-26.905625 360.293125 -27.99875 360.14875 -29.125 360 C-32.8125 359.4375 -32.8125 359.4375 -35.8125 358.4375 C-53.82982403 357.21330133 -70.38464867 359.82275674 -87.6015625 364.80273438 C-96.97439777 367.49369856 -106.20546328 369.57018403 -115.875 370.875 C-126.135067 372.28324449 -138.11078607 373.95311839 -145.8125 381.4375 C-150.63434653 389.33712091 -148.94400275 404.21282086 -146.9375 412.87890625 C-145.82732357 416.83921009 -144.38822802 420.64160181 -142.8125 424.4375 C-142.52890625 425.13133789 -142.2453125 425.82517578 -141.953125 426.54003906 C-139.34217027 432.85843499 -136.57385415 439.07893878 -133.375 445.125 C-131.88837321 448.27664878 -131.38520962 450.01917696 -131.8125 453.4375 C-134.3125 453.875 -134.3125 453.875 -137.8125 453.4375 C-140.01947009 451.86471672 -141.92676573 450.13528162 -143.8828125 448.26171875 C-147.69051628 444.65801501 -147.69051628 444.65801501 -152.5 442.875 C-158.50401376 443.89454951 -163.08542706 447.90668535 -167.5625 451.875 C-169.8125 453.4375 -169.8125 453.4375 -172.4375 453.4375 C-175.27456638 452.24294573 -176.28873428 451.08404047 -177.8125 448.4375 C-177.8125 447.7775 -177.8125 447.1175 -177.8125 446.4375 C-178.616875 446.128125 -179.42125 445.81875 -180.25 445.5 C-182.8125 444.4375 -182.8125 444.4375 -183.8125 443.4375 C-193.89641095 442.45847952 -202.08734248 443.98169196 -211.546875 447.34375 C-214.8125 448.4375 -214.8125 448.4375 -217.8125 448.4375 C-216.87858152 444.1075143 -214.76667934 440.58286751 -212.625 436.75 C-208.33274809 428.88030216 -205.23575919 420.91234073 -202.47290039 412.40380859 C-201.34545701 409.04690325 -200.06683686 405.74881033 -198.8125 402.4375 C-195.50299276 392.68316288 -195.0215826 380.8059456 -199.45703125 371.390625 C-201.40000333 367.15752156 -202.97831501 362.81534893 -204.5625 358.4375 C-205.03925171 357.19081543 -205.03925171 357.19081543 -205.52563477 355.91894531 C-208.14524267 348.66596389 -208.88962247 342.08774837 -206.6875 334.625 C-204.29081396 330.55063374 -201.56746512 327.34685312 -196.90481567 325.80781555 C-194.63855777 325.40671425 -192.57399693 325.34547918 -190.27294922 325.38745117 C-189.37532364 325.40026627 -188.47769806 325.41308136 -187.5528717 325.42628479 C-186.58409592 325.4441655 -185.61532013 325.4620462 -184.6171875 325.48046875 C-182.52906948 325.50612161 -180.44093317 325.53031759 -178.3527832 325.55322266 C-177.26260895 325.56573059 -176.17243469 325.57823853 -175.04922485 325.59112549 C-145.3638522 326.18541986 -145.3638522 326.18541986 -116.41796875 320.3046875 C-113.8125 319.4375 -113.8125 319.4375 -109.8125 319.4375 C-110.72581738 315.37831166 -112.1548176 312.86052029 -114.9375 309.875 C-132.77500143 290.30175827 -140.9864103 262.76883021 -141 236.8125 C-141.01224609 235.60464844 -141.02449219 234.39679688 -141.03710938 233.15234375 C-141.05233383 223.72333001 -140.43861535 214.69444127 -137.21484375 205.76953125 C-135.57813982 201.18159713 -135.31223657 196.96973926 -135.375 192.125 C-135.38257324 191.29758301 -135.39014648 190.47016602 -135.39794922 189.61767578 C-135.74480759 176.63200717 -140.63998671 166.19919462 -149.9375 157.1875 C-155.00469566 152.87608945 -160.61180185 150.67182978 -166.8125 148.4375 C-167.92625 147.92123047 -167.92625 147.92123047 -169.0625 147.39453125 C-173.92691277 145.70166033 -179.06380821 145.31798111 -184.15625 144.66992188 C-198.10425327 142.75735476 -198.10425327 142.75735476 -202.828125 138.7109375 C-203.23546875 138.08445313 -203.6428125 137.45796875 -204.0625 136.8125 C-204.5265625 136.11125 -204.990625 135.41 -205.46875 134.6875 C-206.13390625 133.57375 -206.13390625 133.57375 -206.8125 132.4375 C-207.50859375 131.2928125 -207.50859375 131.2928125 -208.21875 130.125 C-211.49783802 124.4819183 -213.53176215 119.22213449 -214.6171875 112.77734375 C-215.86638804 105.8189019 -217.54831558 98.972691 -219.2121582 92.10522461 C-230.83292336 43.91834774 -230.83292336 43.91834774 -224.625 30.5625 C-222.51141296 27.10931554 -220.41750648 24.42025356 -216.8125 22.4375 C-214.0625 22.125 -214.0625 22.125 -211.8125 22.4375 C-209.89120551 24.35879449 -210.58749504 28.00764487 -210.5 30.5625 C-210.21101145 36.57742832 -209.37383669 40.54066206 -205.8125 45.4375 C-205.4825 46.4275 -205.1525 47.4175 -204.8125 48.4375 C-201.91257401 48.55586433 -200.43095289 48.56261648 -197.8125 47.4375 C-195.08886942 44.36167581 -193.01711072 40.89531172 -190.8125 37.4375 C-187.302822 32.66218365 -183.58603602 28.35041856 -177.8125 26.4375 C-174.77703154 26.14171154 -171.84941735 26.18958838 -168.8125 26.4375 C-169.8125 30.4375 -169.8125 30.4375 -170.34155273 32.25292969 C-170.88486632 34.77318369 -170.92514396 37.06273906 -170.91015625 39.640625 C-170.90693359 40.6203125 -170.90371094 41.6 -170.90039062 42.609375 C-170.89201172 43.62515625 -170.88363281 44.6409375 -170.875 45.6875 C-170.87048828 46.71875 -170.86597656 47.75 -170.86132812 48.8125 C-170.84956088 51.35422573 -170.83312011 53.89583319 -170.8125 56.4375 C-169.78898437 55.99535156 -168.76546875 55.55320313 -167.7109375 55.09765625 C-145.55673973 45.61334283 -145.55673973 45.61334283 -133.8125 46.4375 C-131.8125 48.4375 -131.8125 48.4375 -131.8125 51 C-132.77237244 54.29956151 -133.81366182 56.10068661 -135.75 58.875 C-141.55548104 67.2838982 -142.2171715 76.60716583 -140.42578125 86.59326172 C-138.13134871 97.00310217 -135.02834497 105.8828647 -126.15234375 112.38671875 C-113.23314566 120.50589858 -96.93233147 124.21815875 -81.8125 125.4375 C-80.99394531 125.55996094 -80.17539063 125.68242187 -79.33203125 125.80859375 C-71.10864055 126.54586326 -65.45796824 123.71166159 -58.33300781 120.08081055 C-52.43882333 117.10503187 -46.56163385 114.81101 -40.25 112.875 C-39.4345874 112.62411621 -38.6191748 112.37323242 -37.77905273 112.11474609 C-32.15757308 110.4375 -32.15757308 110.4375 -29.8125 110.4375 C-31.52298665 103.59555341 -35.60351058 98.94126396 -40.18359375 93.75 C-53.66134594 78.32340998 -60.12044987 60.83544609 -59.30859375 40.37890625 C-58.59679753 30.99420151 -54.54869148 24.79869148 -48 18.25 C-34.30372083 6.69376445 -17.894682 0.18920452 0 0 Z " fill="#030303" transform="translate(237.8125,11.5625)"/>
<path d="M0 0 C3.69034162 4.17882815 3.08166779 8.33699128 3.05780029 13.73854065 C3.07229469 14.86910574 3.08678909 15.99967083 3.10172272 17.16449547 C3.14380713 20.92887726 3.15028267 24.69244749 3.15643311 28.45704651 C3.17825137 31.11431855 3.2019372 33.7715131 3.22790527 36.42874146 C3.28494931 42.72796993 3.31561921 49.0270425 3.33592963 55.32648593 C3.3520109 60.13887764 3.37850281 64.95109167 3.41351318 69.76338196 C3.52807503 85.56658265 3.58828856 101.36901692 3.59979248 117.17262268 C3.60487033 123.25015345 3.62398975 129.32749295 3.6494534 135.4049601 C3.67359011 141.37929103 3.68138914 147.3535289 3.68312836 153.32791328 C3.68614307 155.82822328 3.69413137 158.32853267 3.70731354 160.82880974 C3.72425639 164.26551378 3.72253165 167.70171488 3.71600342 171.13844299 C3.72982559 172.6609668 3.72982559 172.6609668 3.743927 174.21424866 C3.73835785 175.14418137 3.7327887 176.07411407 3.72705078 177.03222656 C3.72851734 177.83683036 3.7299839 178.64143415 3.7314949 179.47041988 C3.2649548 182.23184124 2.23688624 183.62427112 0.35955811 185.67189026 C-2.62197524 186.40485054 -5.60060052 185.95487849 -8.64044189 185.67189026 C-10.02102783 185.58294495 -10.02102783 185.58294495 -11.42950439 185.49220276 C-16.92237354 184.87179605 -20.04603561 183.87908754 -23.76544189 179.67189026 C-26.42611897 176.2091909 -27.75496263 173.99050305 -27.83683777 169.61264038 C-27.86405442 168.33481532 -27.86405442 168.33481532 -27.89182091 167.03117561 C-27.91422057 165.62320119 -27.91422057 165.62320119 -27.93707275 164.18678284 C-27.95638666 163.19766844 -27.97570057 162.20855404 -27.99559975 161.18946648 C-28.0583945 157.87769234 -28.11350771 154.56584556 -28.16778564 151.25392151 C-28.20876078 148.91105081 -28.249772 146.56818075 -28.29081726 144.22531128 C-28.41890768 136.70766728 -28.53188049 129.18983906 -28.64044189 121.67189026 C-28.6673196 119.82886951 -28.6673196 119.82886951 -28.6947403 117.94861603 C-28.90714993 103.15570408 -29.06515432 88.36340082 -29.13694191 73.56910515 C-29.1682175 67.25304201 -29.21616786 60.93794696 -29.29888916 54.62232971 C-29.38059971 48.35069828 -29.42344709 42.07992882 -29.43839836 35.80779457 C-29.45058601 33.45499807 -29.47647776 31.10222803 -29.51684761 28.74974632 C-29.57010539 25.50356434 -29.57334809 22.26094317 -29.56451416 19.01441956 C-29.59170532 18.06464737 -29.61889648 17.11487518 -29.64691162 16.13632202 C-29.59126203 12.17689061 -29.44589322 9.67090342 -26.90974236 6.52527809 C-23.06131141 3.05908067 -19.67271567 0.78647411 -14.51544189 -0.26560974 C-13.54348877 -0.48088318 -12.57153564 -0.69615662 -11.57012939 -0.91795349 C-3.94684329 -1.98521355 -3.94684329 -1.98521355 0 0 Z " fill="#F9F9F9" transform="translate(222.64044189453125,156.32810974121094)"/>
<path d="M0 0 C8.40885752 0.08770647 17.14699621 1.39630283 23.43359375 7.53125 C24.46023323 12.07873251 24.63069585 16.61452256 24.73022461 21.25756836 C24.7494932 22.00648661 24.76876179 22.75540485 24.78861427 23.52701759 C24.85061805 25.99578903 24.90604902 28.46465457 24.9609375 30.93359375 C25.00256848 32.68318443 25.04431348 34.4327724 25.08616638 36.18235779 C25.50123628 53.97107564 25.75766111 71.76183729 25.96622467 89.55401993 C25.99665652 92.14160122 26.02789227 94.7291719 26.05926514 97.31674194 C26.31238405 118.32530013 26.53208142 139.33349308 26.55859375 160.34375 C26.56118195 161.2929129 26.56377014 162.24207581 26.56643677 163.22000122 C26.57214114 165.80946939 26.57083233 168.39881311 26.56640625 170.98828125 C26.56937462 172.09311859 26.56937462 172.09311859 26.57240295 173.22027588 C26.54966184 178.09299175 26.37701157 180.56482199 22.87109375 184.15625 C19.23513383 187.10217373 16.02693716 187.29366327 11.43359375 187.53125 C11.43359375 188.19125 11.43359375 188.85125 11.43359375 189.53125 C9.68574908 189.66685864 7.93485449 189.76352209 6.18359375 189.84375 C4.72179687 189.93076172 4.72179687 189.93076172 3.23046875 190.01953125 C0.43359375 189.53125 0.43359375 189.53125 -1.70808411 187.44404602 C-4.00663766 183.84121663 -4.07653022 181.69299994 -4.09643555 177.43823242 C-4.10518676 176.74011444 -4.11393797 176.04199646 -4.12295437 175.32272339 C-4.14739581 173.01045719 -4.14396799 170.69909799 -4.140625 168.38671875 C-4.15280894 166.7548124 -4.16683189 165.12291887 -4.18258667 163.49104309 C-4.21246461 160.03053034 -4.23040114 156.57025083 -4.23855591 153.10961914 C-4.25139183 147.6933355 -4.28980138 142.27743832 -4.33374023 136.86132812 C-4.34808472 135.06454505 -4.36238241 133.26776161 -4.37663269 131.47097778 C-4.38363882 130.58895817 -4.39064495 129.70693855 -4.39786339 128.79819107 C-4.41791049 126.14443144 -4.43529175 123.49066701 -4.45185852 120.83688354 C-4.52277026 109.77999946 -4.69610704 98.73398941 -5.05911255 87.68240356 C-5.60078659 70.98714273 -5.73451595 54.28540328 -5.7975769 37.58251953 C-5.80860734 34.73250193 -5.82638039 31.88265421 -5.85012817 29.03271484 C-5.88261739 25.04783907 -5.88989841 21.06313549 -5.89453125 17.078125 C-5.90683273 15.8697699 -5.91913422 14.66141479 -5.93180847 13.41644287 C-5.92885269 12.30287415 -5.92589691 11.18930542 -5.92285156 10.04199219 C-5.92649719 9.07009949 -5.93014282 8.09820679 -5.93389893 7.09686279 C-5.36264313 3.10869847 -4.02124985 0.83240484 0 0 Z " fill="#FBFBFB" transform="translate(270.56640625,153.46875)"/>
<path d="M0 0 C1.32 0 2.64 0 4 0 C5.30859375 1.57421875 5.30859375 1.57421875 6.4375 3.6875 C7.88335801 6.36258922 9.17391389 8.16933721 11.375 10.3125 C14.39371487 13.40308903 16.41127039 16.59415256 18.5625 20.3125 C18.95526123 20.98039551 19.34802246 21.64829102 19.75268555 22.33642578 C22.36362151 26.810291 24.81271319 31.30138389 27 36 C27.34675781 36.71285156 27.69351562 37.42570312 28.05078125 38.16015625 C33.20671002 49.09072523 35.64644532 62.90247488 31.8125 74.6875 C31.21811967 76.12907401 30.61332528 77.5663837 30 79 C29.71769531 79.8765625 29.43539063 80.753125 29.14453125 81.65625 C26.53847481 89.40452508 22.7608298 96.22190362 18.625 103.25 C18.08375488 104.17256592 17.54250977 105.09513184 16.98486328 106.0456543 C13.38381887 112.04255052 9.42217687 117.58162759 5 123 C1.125 122.125 1.125 122.125 0 121 C-0.12338214 119.37506585 -0.17791928 117.74485976 -0.20532227 116.11547852 C-0.22525742 115.05944427 -0.24519257 114.00341003 -0.26573181 112.91537476 C-0.28245438 111.74834015 -0.29917694 110.58130554 -0.31640625 109.37890625 C-0.33727798 108.15998688 -0.35814972 106.9410675 -0.37965393 105.68521118 C-0.43495696 102.3410803 -0.48535211 98.99695519 -0.53263092 95.65270615 C-0.5623961 93.56977052 -0.59380895 91.48686571 -0.62567139 89.40396118 C-0.94537548 68.33213572 -1.10479783 47.2617075 -1.125 26.1875 C-1.1275882 24.91431915 -1.13017639 23.64113831 -1.13284302 22.32937622 C-1.13861848 18.75471069 -1.13717165 15.18013461 -1.1328125 11.60546875 C-1.13479141 10.53865875 -1.13677032 9.47184875 -1.1388092 8.37271118 C-1.13570236 7.40948944 -1.13259552 6.4462677 -1.12939453 5.45385742 C-1.12859894 4.61271896 -1.12780334 3.77158051 -1.12698364 2.904953 C-1 1 -1 1 0 0 Z " fill="#F8F8F8" transform="translate(337,186)"/>
<path d="M0 0 C2.625 0.375 2.625 0.375 5 1 C5.90060609 24.66047003 6.13101054 48.2844568 6.06866455 71.96020508 C6.05817825 76.38687636 6.05381452 80.81355408 6.04882812 85.24023438 C6.03830727 93.82683954 6.02139092 102.41341504 6 111 C3.525 111.495 3.525 111.495 1 112 C-7.10840194 99.21201502 -14.66044859 86.21810783 -20 72 C-20.36609375 71.07058594 -20.7321875 70.14117187 -21.109375 69.18359375 C-22.19473955 65.30389151 -22.38278224 61.62334348 -22.375 57.625 C-22.37483887 56.84640625 -22.37467773 56.0678125 -22.37451172 55.265625 C-22.22830722 47.65683485 -21.62791476 35.62791476 -16 30 C-15.27213989 27.93042186 -14.59240222 25.84380924 -13.9375 23.75 C-11.08788578 15.17753244 -6.43406287 6.43406287 0 0 Z " fill="#F6F6F6" transform="translate(148,194)"/>
<path d="M0 0 C0.66 0.33 1.32 0.66 2 1 C-2.03523352 5.81123996 -6.04467233 10.13242719 -11 14 C-11 11 -11 11 -8.59375 8.30078125 C-7.5700032 7.29697757 -6.5383946 6.30114351 -5.5 5.3125 C-4.97535156 4.80138672 -4.45070313 4.29027344 -3.91015625 3.76367188 C-2.61339096 2.50227292 -1.30753883 1.25022788 0 0 Z " fill="#3D3D3D" transform="translate(382,436)"/>
<path d="M0 0 C0.66 0.33 1.32 0.66 2 1 C-5.11389522 9.6309795 -5.11389522 9.6309795 -10 12 C-8.52278578 8.54798361 -6.56205999 6.35038064 -3.875 3.75 C-3.15054687 3.04359375 -2.42609375 2.3371875 -1.6796875 1.609375 C-1.12539063 1.07828125 -0.57109375 0.5471875 0 0 Z " fill="#393939" transform="translate(430,37)"/>
<path d="M0 0 C0.66 0 1.32 0 2 0 C0.44499019 3.81684226 -2.03595495 6.19195732 -5 9 C-5.66 8.67 -6.32 8.34 -7 8 C-5.88200014 6.66079162 -4.75538103 5.32877444 -3.625 4 C-2.68527344 2.88625 -2.68527344 2.88625 -1.7265625 1.75 C-1.15679687 1.1725 -0.58703125 0.595 0 0 Z " fill="#C0C0C0" transform="translate(284,376)"/>
<path d="M0 0 C1.2065625 0.0309375 1.2065625 0.0309375 2.4375 0.0625 C1.85484375 0.31773438 1.2721875 0.57296875 0.671875 0.8359375 C-1.77638223 2.17991087 -3.37993248 3.68060296 -5.3125 5.6875 C-5.92609375 6.31914063 -6.5396875 6.95078125 -7.171875 7.6015625 C-7.63078125 8.08367188 -8.0896875 8.56578125 -8.5625 9.0625 C-8.5625 6.0625 -8.5625 6.0625 -6.125 3.4375 C-5.279375 2.65375 -4.43375 1.87 -3.5625 1.0625 C-2.5625 0.0625 -2.5625 0.0625 0 0 Z " fill="#444444" transform="translate(23.5625,33.9375)"/>
<path d="M0 0 C3.96 0 7.92 0 12 0 C12 0.33 12 0.66 12 1 C11.32453125 1.04898438 10.6490625 1.09796875 9.953125 1.1484375 C9.06109375 1.22320312 8.1690625 1.29796875 7.25 1.375 C6.36828125 1.44460937 5.4865625 1.51421875 4.578125 1.5859375 C2.00933618 1.99850055 0.24158985 2.71160957 -2 4 C-1.34 2.68 -0.68 1.36 0 0 Z " fill="#BDBDBD" transform="translate(268,154)"/>
</svg>
