<?xml version="1.0" standalone="no"?>
<!DOCTYPE svg PUBLIC "-//W3C//DTD SVG 20010904//EN"
 "http://www.w3.org/TR/2001/REC-SVG-20010904/DTD/svg10.dtd">
<svg version="1.0" xmlns="http://www.w3.org/2000/svg"
 width="532.000000pt" height="469.000000pt" viewBox="0 0 532.000000 469.000000"
 preserveAspectRatio="xMidYMid meet">

<g transform="translate(0.000000,469.000000) scale(0.100000,-0.100000)"
fill="#000000" stroke="none">
<path d="M2413 4330 l-33 -20 -2 -282 -3 -283 -31 -3 c-28 -3 -33 1 -48 35 -9
21 -39 74 -66 118 -27 44 -65 109 -85 144 -53 90 -158 195 -231 228 -52 24
-71 27 -169 27 -108 1 -113 0 -185 -36 -84 -41 -145 -98 -154 -143 -5 -24 -1
-37 23 -65 l29 -35 183 0 184 0 69 -35 c78 -40 122 -87 166 -179 37 -75 37
-81 3 -81 -40 0 -244 -53 -338 -88 -173 -64 -313 -145 -443 -257 -269 -230
-412 -481 -467 -817 -26 -159 -17 -292 31 -478 30 -116 62 -197 111 -284 141
-246 366 -456 613 -572 139 -65 397 -144 470 -144 62 0 65 -10 30 -81 -45 -88
-87 -138 -134 -161 -23 -11 -54 -27 -71 -36 -25 -14 -61 -17 -214 -17 l-183 0
-29 -35 c-33 -39 -33 -74 0 -120 22 -31 107 -83 179 -110 71 -27 179 -27 268
1 60 19 78 31 147 98 76 73 103 107 144 182 10 19 26 45 34 59 9 14 38 62 64
107 42 73 51 83 76 83 l29 0 0 -280 0 -280 33 -20 c29 -18 50 -20 268 -20 229
0 237 1 270 23 l34 23 3 277 2 277 29 0 c25 0 34 -10 76 -82 27 -46 71 -121
99 -168 32 -55 80 -116 135 -171 78 -79 92 -89 155 -108 131 -41 249 -25 370
49 100 61 127 121 79 178 -26 32 -32 34 -108 39 -44 3 -112 0 -151 -6 -58 -9
-80 -8 -120 4 -75 22 -160 72 -192 113 -38 48 -94 160 -87 172 4 6 23 10 44
10 99 0 398 99 551 183 216 118 430 329 543 537 190 349 197 793 18 1148 -110
218 -293 413 -526 559 -53 34 -198 103 -264 127 -90 33 -303 86 -342 86 -16 0
-29 4 -29 10 0 18 63 135 94 174 16 21 48 48 70 58 23 11 55 27 71 36 25 14
61 17 214 17 l183 0 29 35 c33 39 33 74 0 120 -22 31 -107 83 -179 110 -71 27
-179 27 -268 -1 -62 -19 -76 -29 -159 -113 -53 -53 -101 -113 -116 -142 -14
-27 -33 -61 -43 -75 -25 -35 -116 -193 -116 -201 0 -5 -13 -8 -30 -8 l-30 0
-2 282 -3 282 -34 23 c-33 22 -41 23 -270 23 -217 0 -239 -2 -268 -20z m-33
-1935 c0 -658 -4 -1106 -9 -1109 -9 -6 -76 5 -161 26 -75 19 -221 92 -295 148
-218 164 -338 345 -402 600 -27 109 -28 126 -28 335 1 215 2 223 33 344 40
156 111 300 191 392 77 88 200 199 248 224 21 10 52 28 68 40 52 35 136 67
240 90 55 12 103 20 108 18 4 -2 7 -501 7 -1108z m884 1039 c44 -20 88 -41 96
-48 8 -7 36 -25 62 -39 53 -31 172 -137 236 -212 95 -109 163 -260 204 -448
33 -150 33 -436 0 -591 -56 -259 -167 -440 -370 -604 -85 -67 -234 -154 -289
-167 -10 -3 -40 -11 -68 -19 -27 -7 -71 -16 -97 -20 l-48 -7 0 1114 0 1114 96
-19 c53 -10 133 -34 178 -54z"/>
</g>
</svg>
