<?xml version="1.0" standalone="no"?>
<!DOCTYPE svg PUBLIC "-//W3C//DTD SVG 20010904//EN"
 "http://www.w3.org/TR/2001/REC-SVG-20010904/DTD/svg10.dtd">
<svg version="1.0" xmlns="http://www.w3.org/2000/svg"
 width="200.000000pt" height="200.000000pt" viewBox="0 0 200.000000 200.000000"
 preserveAspectRatio="xMidYMid meet">

<g transform="translate(0.000000,200.000000) scale(0.100000,-0.100000)"
fill="#000000" stroke="none">
<path d="M1362 1800 c-56 -12 -126 -47 -154 -78 l-23 -24 104 -99 104 -98
-112 -118 c-131 -138 -110 -131 -376 -132 l-160 0 -120 113 -119 114 97 102
c53 56 97 106 97 111 0 17 -90 67 -142 79 -155 38 -310 -34 -379 -176 -28 -57
-33 -76 -33 -143 0 -82 26 -155 76 -214 l24 -29 99 101 c54 56 102 101 106
101 4 0 52 -44 107 -97 l101 -98 5 -237 6 -237 -96 -101 c-53 -55 -100 -100
-104 -100 -4 0 -53 43 -108 96 l-102 96 -20 -24 c-49 -59 -65 -109 -65 -208 0
-84 3 -101 27 -145 32 -62 103 -129 166 -158 36 -17 66 -22 132 -22 94 0 147
18 209 71 l34 28 -106 101 -106 100 117 122 117 122 206 3 206 2 116 -109 c65
-60 117 -113 117 -119 0 -6 -44 -55 -97 -109 l-98 -98 25 -21 c90 -75 235 -94
342 -46 147 68 228 238 185 389 -17 57 -72 149 -89 149 -6 0 -54 -46 -107
-102 l-97 -102 -111 110 -111 109 -6 224 -5 225 102 106 c56 59 105 107 109
106 4 0 53 -44 109 -96 l102 -94 28 34 c67 80 82 221 35 327 -63 139 -220 222
-364 193z"/>
</g>
</svg>
