<?xml version="1.0" encoding="UTF-8"?>
<svg version="1.1" xmlns="http://www.w3.org/2000/svg" width="200" height="200">
<path d="M0 0 C66 0 132 0 200 0 C200 66 200 132 200 200 C134 200 68 200 0 200 C0 134 0 68 0 0 Z " fill="#FEFEFE" transform="translate(0,0)"/>
<path d="M0 0 C8.40330375 5.68708436 13.72660076 13.90935219 15.8125 23.8125 C16.79497246 31.80112849 14.86613634 40.16716653 10.43359375 46.91015625 C9.0625 48.5625 9.0625 48.5625 6.8125 50.8125 C3.35430696 49.33927875 1.25621213 47.40787041 -1.3125 44.6875 C-5.93975684 39.93705496 -10.92912999 35.84135552 -16.1875 31.8125 C-16.56140869 32.6938562 -16.56140869 32.6938562 -16.94287109 33.59301758 C-18.36202615 36.12372346 -19.87490049 37.47412082 -22.1015625 39.32421875 C-31.22011764 46.65632503 -31.22011764 46.65632503 -36.34375 56.69140625 C-36.31478765 60.27911791 -35.96155665 63.58307989 -35.43408203 67.11914062 C-35.13656241 70.36887973 -35.30930701 73.47681428 -35.49609375 76.734375 C-36.3792872 91.39362746 -36.3792872 91.39362746 -30.51171875 104.3515625 C-25.15490091 110.10646279 -19.09305774 115.02825436 -12.1875 118.8125 C-2.84488615 109.63199663 -2.84488615 109.63199663 5.8125 99.8125 C7.6171875 100.01953125 7.6171875 100.01953125 9.8125 100.8125 C11.4453125 102.88671875 11.4453125 102.88671875 12.9375 105.5 C13.43507812 106.34949219 13.93265625 107.19898438 14.4453125 108.07421875 C18.46251113 116.12009372 19.3308839 124.36456462 16.90234375 133.078125 C12.74352025 143.72257357 7.09260219 149.8083445 -3.1875 154.8125 C-11.98925655 158.22542601 -19.98432877 157.4120039 -28.58984375 154.03515625 C-32.18241165 152.34421828 -35.09078145 150.28987484 -38.1875 147.8125 C-36.76638017 144.5404406 -35.05214013 142.49284504 -32.45703125 140.0625 C-31.73708984 139.3715625 -31.01714844 138.680625 -30.27539062 137.96875 C-28.75227811 136.52538844 -27.22356515 135.08791498 -25.68945312 133.65625 C-24.97337891 132.9653125 -24.25730469 132.274375 -23.51953125 131.5625 C-22.85671143 130.93859375 -22.1938916 130.3146875 -21.51098633 129.671875 C-19.98294503 127.92132513 -19.98294503 127.92132513 -20.24731445 125.81469727 C-21.42553783 123.30558016 -22.85440645 121.90020097 -24.8984375 120.02734375 C-25.64867187 119.33189453 -26.39890625 118.63644531 -27.171875 117.91992188 C-27.96078125 117.20384766 -28.7496875 116.48777344 -29.5625 115.75 C-31.112158 114.3218086 -32.66164388 112.89343042 -34.2109375 111.46484375 C-34.90106934 110.83570068 -35.59120117 110.20655762 -36.30224609 109.55834961 C-38.1875 107.8125 -38.1875 107.8125 -39.54725647 106.23458862 C-41.58826753 104.46503517 -42.64349611 104.39963401 -45.31665039 104.31323242 C-46.55923363 104.26515694 -46.55923363 104.26515694 -47.82691956 104.21611023 C-48.72063766 104.20022354 -49.61435577 104.18433685 -50.53515625 104.16796875 C-51.92485878 104.13876091 -51.92485878 104.13876091 -53.34263611 104.10896301 C-55.306993 104.07622872 -57.27151606 104.05243539 -59.23608398 104.03686523 C-62.21715042 104.00040181 -65.19069122 103.89459593 -68.16992188 103.78710938 C-78.42627666 103.25526724 -78.42627666 103.25526724 -87.65454102 106.94677734 C-90.16300685 109.4412294 -92.17276117 111.91304717 -94.1875 114.8125 C-95.4424512 116.2432548 -96.71033152 117.66295828 -98 119.0625 C-100.76850077 122.27936979 -103.47324237 125.54986095 -106.1875 128.8125 C-105.68822998 129.27624023 -105.18895996 129.73998047 -104.67456055 130.21777344 C-102.40493466 132.32937236 -100.1399372 134.44587316 -97.875 136.5625 C-97.08931641 137.29210937 -96.30363281 138.02171875 -95.49414062 138.7734375 C-94.3581543 139.83691406 -94.3581543 139.83691406 -93.19921875 140.921875 C-92.50272217 141.57124023 -91.80622559 142.22060547 -91.08862305 142.88964844 C-89.24450116 144.75484736 -87.70569476 146.67747372 -86.1875 148.8125 C-93.33625255 155.80239138 -100.69526994 158.95720919 -110.75 159.3125 C-120.91916008 158.91583064 -127.65899506 155.292544 -134.984375 148.32421875 C-142.08863644 140.22485686 -143.54861523 131.81306619 -143.47265625 121.36328125 C-142.89045674 114.11370109 -139.34350485 108.60122104 -135.1875 102.8125 C-131.25308329 104.39180812 -128.68838456 107.12211415 -125.8125 110.125 C-122.10081977 113.92580512 -118.37158204 117.53308435 -114.1875 120.8125 C-111.32627912 119.51409182 -109.2682105 118.1416723 -107.05859375 115.9140625 C-106.49849609 115.35203125 -105.93839844 114.79 -105.36132812 114.2109375 C-104.78833984 113.62570313 -104.21535156 113.04046875 -103.625 112.4375 C-103.04814453 111.86 -102.47128906 111.2825 -101.87695312 110.6875 C-95.80818752 104.9352368 -95.80818752 104.9352368 -93.71655273 97.17431641 C-93.6916124 96.25881012 -93.66667206 95.34330383 -93.64097595 94.40005493 C-93.61294487 90.19022983 -93.58926535 85.98186004 -93.61938477 81.77197266 C-93.62309837 79.5667361 -93.59688777 77.36122608 -93.53930664 75.15673828 C-92.96780697 60.05563286 -92.96780697 60.05563286 -100.06178284 47.32040405 C-102.95797155 44.59685669 -105.9831966 42.16077699 -109.1875 39.8125 C-110.85521611 38.48047953 -112.52234416 37.14771968 -114.1875 35.8125 C-117.30603829 37.19718082 -119.4250727 38.80320448 -121.82421875 41.21875 C-122.48357422 41.88003906 -123.14292969 42.54132813 -123.82226562 43.22265625 C-124.49966797 43.91230469 -125.17707031 44.60195312 -125.875 45.3125 C-126.56400391 46.00214844 -127.25300781 46.69179687 -127.96289062 47.40234375 C-131.49919197 50.79214971 -131.49919197 50.79214971 -134.1875 54.8125 C-139.67367791 52.6512784 -141.65779879 47.86446211 -144.1875 42.8125 C-147.58802479 34.10266529 -146.84795191 25.97162086 -143.4453125 17.453125 C-139.43100888 9.02558075 -133.06031373 2.84141016 -124.5625 -1.0625 C-114.81468155 -4.26070369 -104.19690596 -2.73832622 -95.1875 1.8125 C-92 4.0625 -92 4.0625 -90.1875 5.8125 C-93.76754493 14.05228594 -101.82174123 20.63095933 -108.1875 26.8125 C-105.12454949 33.63722953 -98.77388778 38.28051039 -93.1796875 43.0390625 C-91.1875 44.8125 -91.1875 44.8125 -88.97509766 47.390625 C-85.55776732 50.35961405 -84.0551898 50.41296685 -79.59375 50.3359375 C-77.675625 50.31853516 -77.675625 50.31853516 -75.71875 50.30078125 C-74.37499292 50.26327347 -73.0312429 50.22551207 -71.6875 50.1875 C-69.7384375 50.16623047 -69.7384375 50.16623047 -67.75 50.14453125 C-65.1531723 50.10557883 -62.55660551 50.0393986 -59.96118164 49.94555664 C-57.50848393 49.85907671 -55.05354408 49.81921254 -52.59936523 49.83374023 C-46.88349332 49.72530236 -43.11013201 49.44383244 -38.84765625 45.42578125 C-37.61382982 44.0218621 -36.41426142 42.58712585 -35.25 41.125 C-34.03319045 39.70388024 -32.81575121 38.28329938 -31.59765625 36.86328125 C-31.03062988 36.17959473 -30.46360352 35.4959082 -29.87939453 34.79150391 C-27.46442276 31.96671874 -24.85487776 29.39843112 -22.1875 26.8125 C-23.76722542 22.69358402 -26.76965345 20.21473633 -30 17.375 C-31.04918979 16.43993716 -32.09737625 15.50374724 -33.14453125 14.56640625 C-33.65193848 14.11281738 -34.1593457 13.65922852 -34.68212891 13.19189453 C-36.92539491 11.13635562 -39.05604123 8.98335727 -41.1875 6.8125 C-39.6897693 2.3193079 -36.16770521 0.0115084 -32.1875 -2.1875 C-20.93520338 -6.79819715 -10.61128592 -6.07532037 0 0 Z " fill="#030303" transform="translate(160.1875,24.1875)"/>
<path d="M0 0 C3.23861303 1.44424635 5.61969163 3.25772247 8.25 5.625 C8.95640625 6.25664063 9.6628125 6.88828125 10.390625 7.5390625 C10.92171875 8.02117187 11.4528125 8.50328125 12 9 C11.34 9.66 10.68 10.32 10 11 C9.18595703 10.15115234 9.18595703 10.15115234 8.35546875 9.28515625 C7.64003906 8.55167969 6.92460937 7.81820312 6.1875 7.0625 C5.47980469 6.33160156 4.77210938 5.60070313 4.04296875 4.84765625 C2.04463837 2.79165354 2.04463837 2.79165354 -1 2 C-0.67 1.34 -0.34 0.68 0 0 Z " fill="#EBEBEB" transform="translate(144,56)"/>
</svg>
