<?xml version="1.0" standalone="no"?>
<!DOCTYPE svg PUBLIC "-//W3C//DTD SVG 20010904//EN"
 "http://www.w3.org/TR/2001/REC-SVG-20010904/DTD/svg10.dtd">
<svg version="1.0" xmlns="http://www.w3.org/2000/svg"
 width="480.000000pt" height="479.000000pt" viewBox="0 0 480.000000 479.000000"
 preserveAspectRatio="xMidYMid meet">

<g transform="translate(0.000000,479.000000) scale(0.100000,-0.100000)"
fill="#000000" stroke="none">
<path d="M2280 4664 c-123 -22 -290 -100 -372 -173 -81 -73 -110 -136 -115
-254 -6 -117 14 -215 66 -322 21 -44 56 -100 78 -125 66 -75 153 -191 153
-205 0 -8 -42 -26 -102 -46 -57 -18 -151 -54 -209 -81 -118 -54 -136 -56 -274
-33 -199 32 -351 87 -428 154 -70 62 -124 223 -113 339 6 67 29 129 78 205 25
39 28 50 18 62 -28 34 -191 7 -305 -50 -44 -23 -72 -32 -79 -25 -27 27 -24
208 4 261 16 30 11 39 -20 39 -71 0 -144 -52 -206 -147 -45 -70 -74 -89 -111
-71 -45 21 -77 98 -77 180 1 58 -2 68 -18 74 -32 10 -83 -31 -109 -89 -21 -46
-24 -65 -23 -172 2 -103 8 -149 48 -325 79 -355 114 -466 167 -538 44 -60 87
-79 215 -92 260 -28 391 -120 458 -325 23 -73 36 -190 25 -228 -40 -133 -50
-192 -56 -327 -4 -113 -2 -165 11 -235 41 -215 123 -389 272 -572 14 -18 24
-39 21 -47 -7 -17 -143 -50 -294 -72 -79 -11 -170 -14 -338 -12 -216 3 -232 2
-265 -17 -54 -32 -75 -78 -74 -160 0 -59 8 -89 46 -185 59 -147 68 -182 68
-255 0 -78 -16 -138 -85 -314 -63 -161 -87 -211 -123 -259 -14 -18 -23 -35
-20 -37 2 -3 45 9 94 26 50 17 121 33 163 36 88 7 126 -8 166 -68 14 -22 33
-39 44 -39 10 0 42 19 70 41 58 46 110 68 145 62 13 -3 45 -25 71 -50 45 -41
81 -63 106 -63 21 0 6 51 -50 170 -82 171 -111 277 -111 396 0 189 34 215 370
280 96 18 243 51 327 74 410 108 612 51 670 -189 42 -177 -78 -525 -226 -653
-47 -41 -76 -84 -62 -92 12 -8 86 8 143 31 148 58 370 242 453 374 19 31 58
112 86 180 69 169 108 235 173 297 105 99 243 146 431 145 231 -1 442 -78 583
-215 71 -68 108 -127 134 -211 34 -114 14 -156 -138 -287 -103 -89 -160 -164
-175 -231 -16 -70 2 -69 83 5 85 78 133 106 183 106 72 0 135 -58 135 -125 1
-68 15 -65 92 17 40 42 83 82 95 87 39 20 93 12 171 -24 84 -39 124 -72 142
-116 15 -35 20 -36 48 -6 69 73 52 192 -48 338 -112 164 -146 297 -154 601 -6
211 -10 243 -35 272 -27 32 -61 38 -226 46 -178 7 -203 15 -253 75 -79 97 -71
215 38 540 75 224 85 281 70 414 -27 247 -122 462 -294 664 -31 37 -56 71 -56
76 0 37 139 44 328 17 196 -28 284 -16 341 49 64 73 65 184 4 495 -28 142 -37
211 -37 295 -1 132 14 187 80 298 38 63 44 80 34 92 -16 19 -53 19 -88 1 -37
-19 -77 -63 -160 -176 -127 -173 -145 -182 -172 -90 -31 104 -94 200 -131 200
-23 0 -23 -1 -24 -158 0 -98 -3 -125 -15 -132 -25 -16 -37 -12 -94 34 -61 50
-118 81 -185 102 -58 17 -125 18 -139 1 -13 -15 -5 -28 74 -125 65 -80 109
-161 130 -243 49 -190 -78 -377 -270 -396 -43 -4 -62 0 -127 30 -111 51 -280
103 -399 122 -161 26 -150 15 -150 146 0 131 22 294 51 376 32 89 37 268 11
351 -33 102 -85 161 -172 191 -36 13 -215 23 -260 15z m550 -1429 c39 -10 64
-25 88 -49 31 -35 32 -38 34 -133 0 -54 2 -123 3 -153 1 -30 5 -363 9 -740 l8
-685 -24 -35 c-26 -38 -92 -67 -180 -77 -40 -5 -50 -2 -72 20 l-26 26 -2 253
c-1 139 -3 273 -4 298 0 25 -4 313 -8 640 l-7 595 21 28 c25 32 72 36 160 12z
m-613 -19 l28 -24 11 -874 c6 -511 7 -887 2 -906 -14 -52 -42 -59 -145 -34
-88 22 -123 44 -148 92 -9 19 -14 169 -19 625 -6 562 -8 927 -7 1002 1 54 44
91 136 118 101 30 108 30 142 1z m1203 -308 c75 -81 205 -304 246 -423 37
-107 39 -238 5 -335 -44 -129 -127 -283 -213 -397 -44 -58 -64 -66 -77 -30 -5
12 -12 282 -16 600 -7 581 -6 607 26 607 4 0 18 -10 29 -22z m-1897 -72 c3 -7
9 -257 12 -555 7 -498 6 -541 -9 -547 -25 -10 -52 20 -113 125 -188 317 -199
490 -51 786 86 171 143 238 161 191z"/>
</g>
</svg>
